<?xml version="1.0" encoding="UTF-8"?>
<svg width="375px" height="151px" viewBox="0 0 375 151" version="1.1" xmlns="http://www.w3.org/2000/svg" xmlns:xlink="http://www.w3.org/1999/xlink">
    <!-- Generator: Sketch 48.2 (47327) - http://www.bohemiancoding.com/sketch -->
    <title>logo</title>
    <desc>Created with Sketch.</desc>
    <defs></defs>
    <g id="web-image" stroke="none" stroke-width="1" fill="none" fill-rule="evenodd" transform="translate(-1525.000000, -62.000000)">
        <path d="M1859.04233,141.703868 C1857.94007,143.469106 1857.16727,145.50889 1856.72596,147.823222 C1856.28465,150.139587 1855.86165,152.254618 1855.45898,154.166281 C1855.05427,156.077943 1854.52145,157.548296 1853.85847,158.57734 C1853.19752,159.608418 1852.09526,159.718237 1850.54966,158.906797 C1849.52062,158.394309 1848.80273,157.438477 1848.40006,156.041337 C1847.99536,154.644196 1847.90384,153.100631 1848.12348,151.408606 C1848.34515,149.718615 1848.84137,147.989984 1849.61214,146.224747 C1850.38494,144.461543 1851.39568,142.936281 1852.64639,141.648959 C1853.89507,140.363671 1855.38373,139.426143 1857.11236,138.836375 C1858.83896,138.24864 1860.73232,138.24864 1862.79244,138.836375 C1860.95399,139.645781 1859.70327,140.601612 1859.04233,141.703868 M1783.81027,195.425651 C1782.87275,194.738266 1782.49448,193.892254 1782.67548,192.883547 C1782.85444,191.872806 1783.68419,190.898672 1785.16267,189.963177 C1786.63913,189.025649 1789.03684,188.521296 1792.35378,188.450117 C1792.64053,190.107569 1792.47987,191.620629 1791.86773,192.991332 C1791.25356,194.360001 1789.82998,195.334136 1787.59496,195.911702 C1786.00869,196.271664 1784.7478,196.108969 1783.81027,195.425651 M1793.72448,151.386235 C1793.4357,153.478896 1792.82153,155.101775 1791.88603,156.25284 C1790.9485,157.407972 1789.97437,158.022145 1788.96566,158.09129 C1787.95492,158.164502 1787.09061,157.60524 1786.37068,156.415535 C1785.64872,155.22583 1785.39655,153.371111 1785.61415,150.847309 C1785.82972,148.107938 1786.47847,145.746831 1787.56039,143.761956 C1788.64027,141.781148 1789.88489,140.247751 1791.29016,139.165831 C1792.69747,138.085945 1794.11902,137.473807 1795.56293,137.327382 C1797.00481,137.185024 1798.15791,137.581592 1799.02426,138.517086 C1797.43595,139.961002 1796.24625,141.762845 1795.45515,143.924651 C1794.65998,146.08849 1794.08444,148.575685 1793.72448,151.386235 M1899.5167,149.86504 C1899.66312,152.218012 1899.27672,154.790622 1898.3575,157.584903 C1897.43827,160.379184 1896.02283,162.9884 1894.1132,165.414584 C1892.1995,167.840769 1889.77332,169.864284 1886.83465,171.479028 C1883.89191,173.09784 1880.50989,173.907246 1876.6886,173.907246 C1873.08491,173.907246 1870.14217,173.337815 1867.86445,172.196919 C1865.58469,171.058056 1863.78488,169.789037 1862.46095,168.391897 C1860.91738,166.775118 1859.73988,164.936668 1858.93251,162.878581 C1857.97464,165.011915 1856.65275,166.923577 1854.96276,168.613568 C1853.27073,170.305593 1851.39568,171.7007 1849.33759,172.802956 C1847.27747,173.907246 1845.09126,174.678012 1842.77489,175.119322 C1840.46056,175.560631 1838.19911,175.5769 1835.99256,175.174231 C1835.13434,175.017638 1834.3046,174.771562 1833.49113,174.480745 C1832.57394,176.180904 1831.45338,177.811919 1830.09691,179.365653 C1828.07746,181.673884 1825.62484,183.709601 1822.74311,185.474838 C1819.9468,187.189233 1816.73561,188.362669 1813.12989,189.025649 C1812.94279,190.298735 1812.69671,191.563686 1812.37336,192.804233 C1812.07034,194.573538 1811.62903,196.298102 1811.00876,197.965722 C1809.96344,200.778306 1808.32226,203.247198 1806.08928,205.374431 C1803.85222,207.49963 1801.00507,209.193688 1797.54577,210.456606 C1794.08444,211.71749 1789.82998,212.349965 1784.78441,212.349965 C1778.03461,212.349965 1770.92689,211.205001 1766.25959,205.850313 C1762.27967,201.280626 1760.84389,194.644717 1762.89994,188.911763 C1766.46295,178.979253 1778.21154,176.577473 1787.56242,176.540866 C1789.75676,176.532732 1791.78435,176.492058 1793.67364,176.42698 C1793.87091,174.989166 1794.07224,173.016493 1793.94005,172.257929 C1793.80786,170.753003 1792.28057,169.764633 1792.28057,169.764633 C1792.20939,169.719892 1787.41193,172.156245 1786.80386,172.331142 C1785.30096,172.762283 1783.78384,172.98192 1782.22807,173.081571 C1779.23855,173.274771 1776.1921,173.079537 1773.28596,172.325041 C1769.21453,171.265491 1765.70642,169.006069 1763.41853,165.731839 C1761.9136,167.155417 1760.21344,168.422402 1758.27331,169.502288 C1755.296,171.155673 1751.89365,171.983382 1748.07235,171.983382 C1744.46867,171.983382 1741.54626,171.450557 1739.30514,170.384907 C1737.05996,169.319256 1735.31506,168.160057 1734.06638,166.909341 C1732.59399,165.441022 1731.52834,163.748997 1730.86739,161.837335 C1729.98477,163.970669 1728.73406,165.880298 1727.11728,167.570289 C1725.5005,169.264347 1723.68035,170.659454 1721.65887,171.76171 C1719.63536,172.866 1717.46745,173.598126 1715.15312,173.968257 C1712.83675,174.33432 1710.55699,174.299747 1708.31384,173.856404 C1706.07069,173.417129 1703.92109,172.49587 1701.863,171.100763 C1699.80491,169.703623 1698.03967,167.755354 1696.56932,165.255957 C1696.26223,164.767873 1696.01006,164.261486 1695.74161,163.759166 C1693.9357,165.768445 1691.67831,167.495042 1688.9064,168.894217 C1685.70742,170.513029 1681.79258,171.320401 1677.15984,171.320401 C1673.11688,171.320401 1669.5681,170.586241 1666.51758,169.115888 C1663.46705,167.645535 1660.94935,165.715569 1658.96448,163.325991 C1656.9796,160.938447 1655.58246,158.180772 1654.77306,155.055 C1653.96365,151.931263 1653.78062,148.713975 1654.22193,145.405172 C1652.97121,145.773269 1651.83235,146.39761 1650.80331,147.280228 C1649.77223,148.160813 1648.88961,149.191891 1648.15545,150.36736 C1647.42129,151.544863 1646.83356,152.777275 1646.39225,154.062563 C1645.95094,155.349885 1645.61945,156.50705 1645.39981,157.536094 C1645.25135,159.154906 1645.19644,160.513407 1645.23305,161.615663 C1645.26965,162.719953 1645.26965,163.675785 1645.23305,164.483157 C1645.19644,165.292563 1645.02968,166.010453 1644.73683,166.634794 C1644.44194,167.259135 1643.85421,167.901779 1642.97363,168.56476 C1641.57648,169.593804 1639.82955,170.218144 1637.73486,170.437782 C1635.64016,170.659454 1633.50683,170.458119 1631.33892,169.831745 C1629.16898,169.207404 1627.20241,168.141754 1625.43717,166.634794 C1623.67397,165.127835 1622.42325,163.159229 1621.68909,160.733045 C1620.73123,157.574734 1620.32856,154.33711 1620.47498,151.028307 C1620.62344,147.721538 1621.04442,144.394432 1621.744,141.049022 C1622.44156,137.703613 1623.36078,134.376507 1624.49964,131.067704 C1625.64054,127.758901 1626.7428,124.505007 1627.80845,121.308057 C1628.8741,118.109073 1629.79332,115.021941 1630.56612,112.044628 C1631.33892,109.065282 1631.75989,106.218125 1631.83514,103.497057 C1631.83514,101.438969 1632.38627,99.8567633 1633.48853,98.7545069 C1634.59078,97.6522504 1635.96962,96.954697 1637.62504,96.6598129 C1639.27842,96.3669625 1641.11484,96.4584782 1643.13835,96.9343601 C1645.15984,97.4143094 1647.1081,98.1871092 1648.98316,99.2507256 C1650.85822,100.318409 1652.54821,101.695213 1654.0572,103.387238 C1655.56213,105.079262 1656.64811,106.954319 1657.30906,109.010373 C1658.3381,112.319176 1658.41335,115.959469 1657.53073,119.929219 C1656.64811,123.898969 1655.3974,127.943966 1653.78062,132.060141 C1654.58799,131.472407 1655.37909,130.939582 1656.15189,130.461666 C1656.92469,129.98375 1657.75037,129.560744 1658.63299,129.192648 C1660.32298,128.458488 1662.19804,127.889056 1664.25816,127.484353 C1666.31624,127.07965 1668.35603,126.896619 1670.37751,126.931192 C1672.39899,126.969832 1674.31065,127.262682 1676.1125,127.81381 C1677.91434,128.366972 1679.403,129.158075 1680.5805,130.185085 C1681.75394,131.216163 1682.54504,132.55636 1682.94974,134.209745 C1683.35444,135.865163 1683.15311,137.795129 1682.3437,139.999642 C1681.31263,142.942382 1680.70659,145.405172 1680.52356,147.390047 C1680.34053,149.374922 1680.46865,150.957128 1680.90996,152.132597 C1681.35127,153.308066 1681.97561,154.156112 1682.78501,154.668601 C1683.59239,155.183123 1684.475,155.478007 1685.43287,155.551219 C1686.6063,155.624432 1687.65569,155.386491 1688.57491,154.833329 C1689.49413,154.282201 1690.2466,153.566344 1690.83637,152.683725 C1691.4241,151.801107 1691.89998,150.845276 1692.27011,149.816232 C1692.5833,148.935647 1692.8009,148.152679 1692.95343,147.430721 C1693.06528,146.324397 1693.20967,145.222141 1693.42728,144.136154 C1694.12483,140.644319 1695.24539,137.447369 1696.79099,134.541235 C1698.33456,131.637135 1700.06115,129.414319 1701.97282,127.870753 C1703.14829,126.914922 1704.69185,126.050607 1706.60555,125.277807 C1708.51518,124.505007 1710.50209,123.898969 1712.56017,123.45766 C1714.61826,123.016351 1716.64178,122.760107 1718.62665,122.686894 C1720.61153,122.613681 1722.26491,122.77841 1723.58884,123.183113 C1724.91277,123.587816 1725.75675,124.2691 1726.12484,125.222897 C1726.49294,126.178729 1726.16145,127.46605 1725.1324,129.082829 C1723.51563,131.509013 1722.10018,134.209745 1720.88607,137.189091 C1719.674,140.166404 1718.82799,142.997291 1718.35007,145.67972 C1717.87215,148.366215 1717.83555,150.69885 1718.24025,152.683725 C1718.64292,154.668601 1719.69027,155.846103 1721.38229,156.212166 C1722.85265,156.580263 1723.95694,156.120651 1724.6911,154.833329 C1725.42525,153.548041 1726.05163,151.894656 1726.56615,149.871141 C1727.08067,147.84966 1727.5952,145.66345 1728.10972,143.310478 C1728.62424,140.957507 1729.43364,138.897385 1730.5359,137.132148 C1731.12364,136.105138 1732.2625,135.204216 1733.95452,134.431416 C1735.64655,133.658617 1737.53991,133.072916 1739.6346,132.666179 C1741.73133,132.26351 1743.84229,132.080478 1745.97563,132.115051 C1748.10896,132.153691 1749.94741,132.446541 1751.49098,132.997669 C1753.03454,133.548798 1754.10019,134.376507 1754.68793,135.478763 C1755.27566,136.58102 1755.05602,137.980194 1754.02698,139.670185 C1752.84948,141.65506 1752.00346,143.694844 1751.49098,145.789538 C1750.97442,147.886266 1750.75478,149.779625 1750.828,151.469616 C1750.90121,153.161641 1751.2327,154.558782 1751.82043,155.661038 C1752.40817,156.763295 1753.21757,157.353063 1754.24662,157.426275 C1755.49733,157.499488 1756.61789,157.149694 1757.61236,156.376895 C1758.60277,155.606129 1759.43048,154.668601 1760.09346,153.566344 C1760.32326,153.181978 1760.52256,152.781342 1760.72593,152.384774 C1760.88253,150.851377 1761.1103,149.273238 1761.4967,147.60155 C1762.36305,143.70908 1763.87611,140.247751 1766.03995,137.219596 C1768.20175,134.191442 1770.67064,131.687977 1773.44662,129.703102 C1776.2226,127.722294 1779.21415,126.298716 1782.4233,125.432367 C1785.63042,124.568051 1788.73179,124.334178 1791.72334,124.728712 C1794.71488,125.127314 1797.47256,126.188897 1799.99636,127.919562 C1802.51813,129.650226 1804.53758,132.137421 1806.05267,135.381146 C1807.78333,135.021184 1809.60348,134.840187 1811.51311,134.840187 C1813.42274,134.840187 1815.08222,135.076094 1816.48953,135.543841 C1817.89481,136.013622 1818.90352,136.770152 1819.51565,137.815466 C1820.12779,138.860779 1820.03831,140.284357 1819.24517,142.086201 C1819.24517,142.086201 1819.04587,142.509207 1818.72659,143.308445 C1817.21556,146.962974 1816.0828,151.129991 1815.3405,155.821699 C1814.39077,161.819032 1814.08369,167.960756 1813.90065,174.078076 C1817.71584,173.40696 1820.80094,172.170481 1823.12138,170.334064 C1824.07924,169.577534 1824.85204,168.764061 1825.52112,167.920082 C1825.37266,167.671973 1825.21404,167.442167 1825.07575,167.179821 C1823.60336,164.607212 1822.74108,161.719381 1822.4828,158.522431 C1822.22655,155.323447 1822.55805,152.08989 1823.47524,148.81566 C1824.39446,145.545496 1825.91972,142.419725 1828.05306,139.442412 C1830.18436,136.4651 1832.97661,133.9474 1836.43387,131.889312 C1841.28624,129.021818 1845.99015,127.421309 1850.54966,127.089819 C1855.10918,126.760362 1858.96911,127.478252 1862.12946,129.241456 C1864.48243,130.638597 1866.28427,132.017434 1867.53499,133.375934 C1868.78367,134.738502 1869.59104,135.968881 1869.96117,137.071137 C1871.94605,136.8515 1873.87601,136.79659 1875.75107,136.906409 C1877.62613,137.016228 1879.2246,137.366021 1880.54853,137.953756 C1881.87042,138.543524 1882.77135,139.350897 1883.24926,140.37994 C1883.72718,141.411018 1883.52584,142.734946 1882.64322,144.349691 C1881.46572,146.334566 1880.60344,148.209622 1880.05231,149.974859 C1879.50118,151.740096 1879.26121,153.301965 1879.33442,154.6625 C1879.40763,156.023034 1879.73709,157.12529 1880.32686,157.971303 C1880.91459,158.817315 1881.76061,159.276927 1882.86286,159.348106 C1884.11358,159.423353 1885.19753,159.091862 1886.11676,158.355669 C1887.03598,157.621509 1887.80675,156.702284 1888.43312,155.600028 C1889.05746,154.495737 1889.57198,153.338572 1889.97669,152.124463 C1890.37936,150.912387 1890.65594,149.901646 1890.8044,149.09224 C1891.17046,147.327003 1891.79683,145.968503 1892.67945,145.012671 C1893.56207,144.05684 1894.49756,143.560621 1895.49204,143.524015 C1896.48447,143.487409 1897.36506,143.983628 1898.13786,145.012671 C1898.91066,146.041715 1899.36824,147.658494 1899.5167,149.86504 Z M1595.82227,97.1041727 C1596.12935,94.1431296 1597.22551,91.7698209 1599.1148,89.9822132 C1601.00409,88.1966391 1603.27572,87.4035025 1605.93171,87.6068708 C1604.90876,86.0755072 1602.7917,84.8512297 1599.57441,83.9299711 C1596.35916,83.0127799 1593.11543,82.7585694 1589.84934,83.1653061 C1585.1495,83.7774448 1581.14111,85.131878 1577.82417,87.2245383 C1574.5052,89.3192323 1572.33526,91.6661031 1571.31435,94.2692179 C1570.29344,96.8743665 1570.62493,99.4774813 1572.31085,102.08263 C1573.99474,104.685745 1577.49268,106.806877 1582.80263,108.439924 C1588.41763,110.17669 1593.39608,112.167666 1597.73596,114.412853 C1602.07584,116.660073 1605.67546,119.289626 1608.53686,122.301511 C1611.39418,125.31543 1613.4116,128.811332 1614.58706,132.793284 C1615.75847,136.775236 1615.98827,141.371361 1615.27445,146.579625 C1614.56063,151.480802 1612.8747,155.796278 1610.22075,159.521986 C1607.56476,163.249728 1604.27019,166.387702 1600.34111,168.942008 C1596.40797,171.494281 1591.93997,173.434415 1586.93914,174.76241 C1581.93424,176.088372 1576.75242,176.753386 1571.39163,176.753386 C1566.03084,176.753386 1560.61717,176.141248 1555.1547,174.914937 C1549.69019,173.690659 1544.5104,171.748491 1539.60719,169.094534 C1535.93232,167.1544 1532.99568,164.65297 1530.80134,161.590242 C1528.60293,158.525481 1527.04716,155.310228 1526.12793,151.938381 C1525.20871,148.570601 1524.85078,145.302471 1525.05618,142.136026 C1525.25955,138.971615 1525.82288,136.293253 1526.74211,134.094842 C1527.66133,131.900497 1528.85917,130.417942 1530.34173,129.653277 C1531.82021,128.888612 1533.48173,129.270944 1535.32018,130.802308 C1541.44564,136.215973 1547.34332,140.350452 1553.0112,143.209811 C1558.67704,146.06917 1563.6799,147.932024 1568.02181,148.800407 C1572.36169,149.66879 1575.83319,149.695228 1578.43631,148.875653 C1581.04146,148.060146 1582.31657,146.732151 1582.26573,144.893701 C1582.21489,143.055251 1580.68149,140.887344 1577.67164,138.38388 C1574.65772,135.882449 1569.67927,133.356615 1562.7383,130.802308 C1555.07945,127.944983 1549.30786,124.137927 1545.42759,119.389276 C1541.54732,114.642659 1539.2757,109.53608 1538.61272,104.073606 C1537.9477,98.6111322 1538.76524,93.1730625 1541.06331,87.7593971 C1543.36137,82.349799 1546.85727,77.5991144 1551.55508,73.515478 C1557.07043,68.6143008 1563.27316,65.3197335 1570.16532,63.6358436 C1577.0595,61.94992 1583.79913,61.5675875 1590.3842,62.4868124 C1596.9713,63.4060374 1603.04591,65.5271693 1608.6121,68.844107 C1614.17626,72.1630785 1618.39005,76.425679 1621.24941,81.6339424 C1623.7,85.9229809 1625.00156,89.9313711 1625.15408,93.6570792 C1625.30864,97.3868547 1624.67007,100.604142 1623.24039,103.306907 C1621.80867,106.01374 1619.69161,108.081996 1616.88309,109.511676 C1614.07458,110.943389 1610.83288,111.45181 1607.15802,111.043039 C1603.58077,110.735953 1600.69701,109.231027 1598.50266,106.524195 C1596.30628,103.819396 1595.4135,100.679388 1595.82227,97.1041727 Z" id="Fill-4-Copy-3" fill="#615199"></path>
    </g>
</svg>