<?xml version="1.0" encoding="utf-8"?>
<!-- Generator: Adobe Illustrator 23.0.6, SVG Export Plug-In . SVG Version: 6.00 Build 0)  -->
<svg version="1.1" id="Layer_1" xmlns="http://www.w3.org/2000/svg" xmlns:xlink="http://www.w3.org/1999/xlink" x="0px" y="0px"
	 viewBox="0 0 150 150" style="enable-background:new 0 0 150 150;" xml:space="preserve">
<style type="text/css">
	.st0{clip-path:url(#SVGID_4_);fill:#594796;stroke:#594796;stroke-miterlimit:10;}
	.st1{fill:none;stroke:#594796;stroke-width:0.5;stroke-miterlimit:10;}
	.st2{clip-path:url(#SVGID_8_);fill:#594796;stroke:#594796;stroke-miterlimit:10;}
	.st3{clip-path:url(#SVGID_12_);fill:#594796;stroke:#594796;stroke-miterlimit:10;}
	.st4{clip-path:url(#SVGID_16_);fill:#594796;stroke:#594796;stroke-miterlimit:10;}
	.st5{clip-path:url(#SVGID_20_);fill:#594796;stroke:#594796;stroke-miterlimit:10;}
	.st6{clip-path:url(#SVGID_24_);fill:#594796;stroke:#594796;stroke-miterlimit:10;}
	.st7{clip-path:url(#SVGID_28_);fill:#594796;stroke:#594796;stroke-width:0.5;stroke-miterlimit:10;}
	.st8{clip-path:url(#SVGID_32_);fill:#594796;stroke:#594796;stroke-width:0.5;stroke-miterlimit:10;}
	.st9{clip-path:url(#SVGID_36_);fill:#594796;stroke:#594796;stroke-width:0.5;stroke-miterlimit:10;}
	.st10{clip-path:url(#SVGID_40_);fill:#594796;stroke:#594796;stroke-width:0.5;stroke-miterlimit:10;}
	.st11{clip-path:url(#SVGID_43_);fill:#594796;stroke:#594796;stroke-width:0.5;stroke-miterlimit:10;}
	.st12{clip-path:url(#SVGID_45_);fill:#594796;stroke:#594796;stroke-width:0.5;stroke-miterlimit:10;}
	.st13{clip-path:url(#SVGID_47_);fill:#594796;stroke:#594796;stroke-width:0.5;stroke-miterlimit:10;}
	.st14{clip-path:url(#SVGID_49_);fill:#594796;stroke:#594796;stroke-width:0.5;stroke-miterlimit:10;}
	.st15{clip-path:url(#SVGID_51_);fill:#594796;stroke:#594796;stroke-width:0.5;stroke-miterlimit:10;}
	.st16{clip-path:url(#SVGID_53_);fill:#594796;stroke:#594796;stroke-width:0.5;stroke-miterlimit:10;}
	.st17{clip-path:url(#SVGID_55_);fill:#594796;stroke:#594796;stroke-width:0.5;stroke-miterlimit:10;}
	.st18{clip-path:url(#SVGID_57_);fill:#594796;stroke:#594796;stroke-width:0.5;stroke-miterlimit:10;}
	.st19{clip-path:url(#SVGID_59_);fill:#594796;stroke:#594796;stroke-width:0.5;stroke-miterlimit:10;}
	.st20{clip-path:url(#SVGID_61_);fill:#594796;stroke:#594796;stroke-width:0.5;stroke-miterlimit:10;}
	.st21{clip-path:url(#SVGID_63_);fill:#594796;stroke:#594796;stroke-width:0.5;stroke-miterlimit:10;}
	.st22{clip-path:url(#SVGID_65_);fill:none;stroke:#594796;stroke-width:2;}
</style>
<g>
	<g>
		<g>
			<g>
				<g>
					<g>
						<defs>
							<path id="SVGID_2_" d="M15.9,75c0,32.6,26.5,59.1,59.1,59.1s59.1-26.4,59.1-59.1S107.6,15.9,75,15.9S15.9,42.4,15.9,75"/>
						</defs>
						<clipPath id="SVGID_4_">
							<use xlink:href="#SVGID_2_"  style="overflow:visible;"/>
						</clipPath>
						<path class="st0" d="M23,91.9c0.4,0,0.7-0.3,0.7-0.7v-5.1c0-0.4-0.3-0.7-0.7-0.7c-0.4,0-0.7,0.3-0.7,0.7v5.1
							C22.3,91.6,22.6,91.9,23,91.9"/>
					</g>
				</g>
				<g>
					<path id="SVGID_1_" class="st1" d="M15.9,75c0,32.6,26.5,59.1,59.1,59.1s59.1-26.4,59.1-59.1S107.6,15.9,75,15.9
						S15.9,42.4,15.9,75"/>
				</g>
			</g>
		</g>
		<g>
			<g>
				<g>
					<g>
						<defs>
							<path id="SVGID_6_" d="M15.9,75c0,32.6,26.5,59.1,59.1,59.1s59.1-26.4,59.1-59.1S107.6,15.9,75,15.9S15.9,42.4,15.9,75"/>
						</defs>
						<clipPath id="SVGID_8_">
							<use xlink:href="#SVGID_6_"  style="overflow:visible;"/>
						</clipPath>
						<path class="st2" d="M59.9,67.5H28.2c-3.2,0-5.9,2.6-5.9,5.9v9.9c0,0.4,0.3,0.7,0.7,0.7s0.7-0.3,0.7-0.7v-9.9
							c0-2.5,2-4.5,4.5-4.5h31.7c2.5,0,4.5,2,4.5,4.5v67.9c0,2.5-2,4.5-4.5,4.5H28.2c-2.5,0-4.5-2-4.5-4.5V93.9
							c0-0.4-0.3-0.7-0.7-0.7s-0.7,0.3-0.7,0.7v47.4c0,3.2,2.6,5.9,5.9,5.9h31.7c3.2,0,5.9-2.6,5.9-5.9V73.4
							C65.8,70.1,63.1,67.5,59.9,67.5"/>
					</g>
				</g>
				<g>
					<path id="SVGID_3_" class="st1" d="M15.9,75c0,32.6,26.5,59.1,59.1,59.1s59.1-26.4,59.1-59.1S107.6,15.9,75,15.9
						S15.9,42.4,15.9,75"/>
				</g>
			</g>
		</g>
		<g>
			<g>
				<g>
					<g>
						<defs>
							<path id="SVGID_10_" d="M15.9,75c0,32.6,26.5,59.1,59.1,59.1s59.1-26.4,59.1-59.1S107.6,15.9,75,15.9S15.9,42.4,15.9,75"/>
						</defs>
						<clipPath id="SVGID_12_">
							<use xlink:href="#SVGID_10_"  style="overflow:visible;"/>
						</clipPath>
						<path class="st3" d="M39.6,89.9H35c-1.7,0-3.1,1.4-3.1,3.1v4.6c0,0.3,0.3,0.6,0.6,0.6s0.6-0.3,0.6-0.6V93c0-1.1,0.9-2,2-2h4.6
							c0.3,0,0.6-0.3,0.6-0.6C40.2,90.2,39.9,89.9,39.6,89.9"/>
					</g>
				</g>
				<g>
					<path id="SVGID_5_" class="st1" d="M15.9,75c0,32.6,26.5,59.1,59.1,59.1s59.1-26.4,59.1-59.1S107.6,15.9,75,15.9
						S15.9,42.4,15.9,75"/>
				</g>
			</g>
		</g>
		<g>
			<g>
				<g>
					<g>
						<defs>
							<path id="SVGID_14_" d="M15.9,75c0,32.6,26.5,59.1,59.1,59.1s59.1-26.4,59.1-59.1S107.6,15.9,75,15.9S15.9,42.4,15.9,75"/>
						</defs>
						<clipPath id="SVGID_16_">
							<use xlink:href="#SVGID_14_"  style="overflow:visible;"/>
						</clipPath>
						<path class="st4" d="M56.2,93.1c0-1.7-1.4-3.1-3.1-3.1h-4.6c-0.3,0-0.6,0.3-0.6,0.6s0.3,0.6,0.6,0.6h4.6c1.1,0,2,0.9,2,2v4.6
							c0,0.3,0.3,0.6,0.6,0.6s0.6-0.3,0.6-0.6L56.2,93.1L56.2,93.1z"/>
					</g>
				</g>
				<g>
					<path id="SVGID_7_" class="st1" d="M15.9,75c0,32.6,26.5,59.1,59.1,59.1s59.1-26.4,59.1-59.1S107.6,15.9,75,15.9
						S15.9,42.4,15.9,75"/>
				</g>
			</g>
		</g>
		<g>
			<g>
				<g>
					<g>
						<defs>
							<path id="SVGID_18_" d="M15.9,75c0,32.6,26.5,59.1,59.1,59.1s59.1-26.4,59.1-59.1S107.6,15.9,75,15.9S15.9,42.4,15.9,75"/>
						</defs>
						<clipPath id="SVGID_20_">
							<use xlink:href="#SVGID_18_"  style="overflow:visible;"/>
						</clipPath>
						<path class="st5" d="M47.9,114.3c0,0.3,0.3,0.6,0.6,0.6h4.6c1.7,0,3.1-1.4,3.1-3.1v-4.6c0-0.3-0.3-0.6-0.6-0.6
							s-0.6,0.3-0.6,0.6v4.6c0,1.1-0.9,2-2,2h-4.6C48.2,113.7,47.9,114,47.9,114.3"/>
					</g>
				</g>
				<g>
					<path id="SVGID_9_" class="st1" d="M15.9,75c0,32.6,26.5,59.1,59.1,59.1s59.1-26.4,59.1-59.1S107.6,15.9,75,15.9
						S15.9,42.4,15.9,75"/>
				</g>
			</g>
		</g>
		<g>
			<g>
				<g>
					<g>
						<defs>
							<path id="SVGID_22_" d="M15.9,75c0,32.6,26.5,59.1,59.1,59.1s59.1-26.4,59.1-59.1S107.6,15.9,75,15.9S15.9,42.4,15.9,75"/>
						</defs>
						<clipPath id="SVGID_24_">
							<use xlink:href="#SVGID_22_"  style="overflow:visible;"/>
						</clipPath>
						<path class="st6" d="M31.8,111.7c0,1.7,1.4,3.1,3.1,3.1h4.6c0.3,0,0.6-0.3,0.6-0.6s-0.3-0.6-0.6-0.6H35c-1.1,0-2-0.9-2-2V107
							c0-0.3-0.3-0.6-0.6-0.6s-0.6,0.3-0.6,0.6L31.8,111.7L31.8,111.7z"/>
					</g>
				</g>
				<g>
					<path id="SVGID_11_" class="st1" d="M15.9,75c0,32.6,26.5,59.1,59.1,59.1s59.1-26.4,59.1-59.1S107.6,15.9,75,15.9
						S15.9,42.4,15.9,75"/>
				</g>
			</g>
		</g>
		<g>
			<g>
				<g>
					<g>
						<defs>
							<path id="SVGID_26_" d="M15.9,75c0,32.6,26.5,59.1,59.1,59.1s59.1-26.4,59.1-59.1S107.6,15.9,75,15.9S15.9,42.4,15.9,75"/>
						</defs>
						<clipPath id="SVGID_28_">
							<use xlink:href="#SVGID_26_"  style="overflow:visible;"/>
						</clipPath>
						<path class="st7" d="M66.4,68h55v-2h-55V68z M122.5,69.9h-57c-0.5,0-1-0.4-1-1V65c0-0.5,0.4-1,1-1h57c0.5,0,1,0.4,1,1v4
							C123.4,69.5,123,69.9,122.5,69.9"/>
					</g>
				</g>
				<g>
					<path id="SVGID_13_" class="st1" d="M15.9,75c0,32.6,26.5,59.1,59.1,59.1s59.1-26.4,59.1-59.1S107.6,15.9,75,15.9
						S15.9,42.4,15.9,75"/>
				</g>
			</g>
		</g>
		<g>
			<g>
				<g>
					<g>
						<defs>
							<path id="SVGID_30_" d="M15.9,75c0,32.6,26.5,59.1,59.1,59.1s59.1-26.4,59.1-59.1S107.6,15.9,75,15.9S15.9,42.4,15.9,75"/>
						</defs>
						<clipPath id="SVGID_32_">
							<use xlink:href="#SVGID_30_"  style="overflow:visible;"/>
						</clipPath>
						<path class="st8" d="M98.9,87.6h10.8v-5.9H98.9V87.6z M110.7,89.6H97.9c-0.5,0-1-0.4-1-1v-7.9c0-0.5,0.4-1,1-1h12.8
							c0.5,0,1,0.4,1,1v7.9C111.7,89.2,111.2,89.6,110.7,89.6"/>
					</g>
				</g>
				<g>
					<path id="SVGID_15_" class="st1" d="M15.9,75c0,32.6,26.5,59.1,59.1,59.1s59.1-26.4,59.1-59.1S107.6,15.9,75,15.9
						S15.9,42.4,15.9,75"/>
				</g>
			</g>
		</g>
		<g>
			<g>
				<g>
					<g>
						<defs>
							<path id="SVGID_34_" d="M15.9,75c0,32.6,26.5,59.1,59.1,59.1s59.1-26.4,59.1-59.1S107.6,15.9,75,15.9S15.9,42.4,15.9,75"/>
						</defs>
						<clipPath id="SVGID_36_">
							<use xlink:href="#SVGID_34_"  style="overflow:visible;"/>
						</clipPath>
						<path class="st9" d="M74.3,87.6h7.9v-7.9h-7.9V87.6z M83.2,89.6h-9.8c-0.5,0-1-0.4-1-1v-9.8c0-0.5,0.4-1,1-1h9.8
							c0.5,0,1,0.4,1,1v9.8C84.2,89.2,83.7,89.6,83.2,89.6"/>
					</g>
				</g>
				<g>
					<path id="SVGID_17_" class="st1" d="M15.9,75c0,32.6,26.5,59.1,59.1,59.1s59.1-26.4,59.1-59.1S107.6,15.9,75,15.9
						S15.9,42.4,15.9,75"/>
				</g>
			</g>
		</g>
		<g>
			<g>
				<g>
					<g>
						<defs>
							<path id="SVGID_38_" d="M15.9,75c0,32.6,26.5,59.1,59.1,59.1s59.1-26.4,59.1-59.1S107.6,15.9,75,15.9S15.9,42.4,15.9,75"/>
						</defs>
						<clipPath id="SVGID_40_">
							<use xlink:href="#SVGID_38_"  style="overflow:visible;"/>
						</clipPath>
						<path class="st10" d="M100.8,79.8h3.9v-3.9h-3.9V79.8z M105.8,81.7h-5.9c-0.5,0-1-0.4-1-1v-5.9c0-0.5,0.4-1,1-1h5.9
							c0.5,0,1,0.4,1,1v5.9C106.7,81.3,106.3,81.7,105.8,81.7"/>
					</g>
				</g>
				<g>
					<path id="SVGID_19_" class="st1" d="M15.9,75c0,32.6,26.5,59.1,59.1,59.1s59.1-26.4,59.1-59.1S107.6,15.9,75,15.9
						S15.9,42.4,15.9,75"/>
				</g>
			</g>
		</g>
		<g>
			<g>
				<g>
					<g>
						<defs>
							<path id="SVGID_42_" d="M15.9,75c0,32.6,26.5,59.1,59.1,59.1s59.1-26.4,59.1-59.1S107.6,15.9,75,15.9S15.9,42.4,15.9,75"/>
						</defs>
						<clipPath id="SVGID_43_">
							<use xlink:href="#SVGID_42_"  style="overflow:visible;"/>
						</clipPath>
						<path class="st11" d="M111.7,87.6h2V73.9h-6.9v5.9h3.9c0.5,0,1,0.4,1,1V87.6z M114.6,89.6h-3.9c-0.5,0-1-0.4-1-1v-6.9h-3.9
							c-0.5,0-1-0.4-1-1v-7.9c0-0.5,0.4-1,1-1h8.8c0.5,0,1,0.4,1,1v15.7C115.6,89.2,115.2,89.6,114.6,89.6"/>
					</g>
				</g>
				<g>
					<path id="SVGID_21_" class="st1" d="M15.9,75c0,32.6,26.5,59.1,59.1,59.1s59.1-26.4,59.1-59.1S107.6,15.9,75,15.9
						S15.9,42.4,15.9,75"/>
				</g>
			</g>
		</g>
		<g>
			<g>
				<g>
					<g>
						<defs>
							<path id="SVGID_44_" d="M15.9,75c0,32.6,26.5,59.1,59.1,59.1s59.1-26.4,59.1-59.1S107.6,15.9,75,15.9S15.9,42.4,15.9,75"/>
						</defs>
						<clipPath id="SVGID_45_">
							<use xlink:href="#SVGID_44_"  style="overflow:visible;"/>
						</clipPath>
						<path class="st12" d="M84.2,87.6H93V73.9H81.2v3.9h2c0.5,0,1,0.4,1,1V87.6z M94,89.6H83.2c-0.5,0-1-0.4-1-1v-8.8h-2
							c-0.5,0-1-0.4-1-1v-5.9c0-0.5,0.4-1,1-1H94c0.5,0,1,0.4,1,1v15.7C94.9,89.2,94.5,89.6,94,89.6"/>
					</g>
				</g>
				<g>
					<path id="SVGID_23_" class="st1" d="M15.9,75c0,32.6,26.5,59.1,59.1,59.1s59.1-26.4,59.1-59.1S107.6,15.9,75,15.9
						S15.9,42.4,15.9,75"/>
				</g>
			</g>
		</g>
		<g>
			<g>
				<g>
					<g>
						<defs>
							<path id="SVGID_46_" d="M15.9,75c0,32.6,26.5,59.1,59.1,59.1s59.1-26.4,59.1-59.1S107.6,15.9,75,15.9S15.9,42.4,15.9,75"/>
						</defs>
						<clipPath id="SVGID_47_">
							<use xlink:href="#SVGID_46_"  style="overflow:visible;"/>
						</clipPath>
						<path class="st13" d="M66.4,46.4h55v-5.9h-55V46.4z M122.5,48.3h-57c-0.5,0-1-0.4-1-1v-7.9c0-0.5,0.4-1,1-1h57
							c0.5,0,1,0.4,1,1v7.9C123.4,47.9,123,48.3,122.5,48.3"/>
					</g>
				</g>
				<g>
					<path id="SVGID_25_" class="st1" d="M15.9,75c0,32.6,26.5,59.1,59.1,59.1s59.1-26.4,59.1-59.1S107.6,15.9,75,15.9
						S15.9,42.4,15.9,75"/>
				</g>
			</g>
		</g>
		<g>
			<g>
				<g>
					<g>
						<defs>
							<path id="SVGID_48_" d="M15.9,75c0,32.6,26.5,59.1,59.1,59.1s59.1-26.4,59.1-59.1S107.6,15.9,75,15.9S15.9,42.4,15.9,75"/>
						</defs>
						<clipPath id="SVGID_49_">
							<use xlink:href="#SVGID_48_"  style="overflow:visible;"/>
						</clipPath>
						<path class="st14" d="M83.2,64H93v-5.9h-9.8V64z M94,66H82.2c-0.5,0-1-0.4-1-1v-7.9c0-0.5,0.4-1,1-1H94c0.5,0,1,0.4,1,1V65
							C94.9,65.6,94.5,66,94,66"/>
					</g>
				</g>
				<g>
					<path id="SVGID_27_" class="st1" d="M15.9,75c0,32.6,26.5,59.1,59.1,59.1s59.1-26.4,59.1-59.1S107.6,15.9,75,15.9
						S15.9,42.4,15.9,75"/>
				</g>
			</g>
		</g>
		<g>
			<g>
				<g>
					<g>
						<defs>
							<path id="SVGID_50_" d="M15.9,75c0,32.6,26.5,59.1,59.1,59.1s59.1-26.4,59.1-59.1S107.6,15.9,75,15.9S15.9,42.4,15.9,75"/>
						</defs>
						<clipPath id="SVGID_51_">
							<use xlink:href="#SVGID_50_"  style="overflow:visible;"/>
						</clipPath>
						<path class="st15" d="M94.9,64h13.8v-3.9H94.9V64z M109.7,66H94c-0.5,0-1-0.4-1-1v-5.9c0-0.5,0.4-1,1-1h15.7c0.5,0,1,0.4,1,1
							V65C110.7,65.6,110.2,66,109.7,66"/>
					</g>
				</g>
				<g>
					<path id="SVGID_29_" class="st1" d="M15.9,75c0,32.6,26.5,59.1,59.1,59.1s59.1-26.4,59.1-59.1S107.6,15.9,75,15.9
						S15.9,42.4,15.9,75"/>
				</g>
			</g>
		</g>
		<g>
			<g>
				<g>
					<g>
						<defs>
							<path id="SVGID_52_" d="M15.9,75c0,32.6,26.5,59.1,59.1,59.1s59.1-26.4,59.1-59.1S107.6,15.9,75,15.9S15.9,42.4,15.9,75"/>
						</defs>
						<clipPath id="SVGID_53_">
							<use xlink:href="#SVGID_52_"  style="overflow:visible;"/>
						</clipPath>
						<path class="st16" d="M110.7,64h2V52.2H98.9v5.9h10.8c0.5,0,1,0.4,1,1C110.7,59.1,110.7,64,110.7,64z M113.6,66h-3.9
							c-0.5,0-1-0.4-1-1v-4.9H97.9c-0.5,0-1-0.4-1-1v-7.9c0-0.5,0.4-1,1-1h15.7c0.5,0,1,0.4,1,1V65C114.6,65.6,114.2,66,113.6,66"/>
					</g>
				</g>
				<g>
					<path id="SVGID_31_" class="st1" d="M15.9,75c0,32.6,26.5,59.1,59.1,59.1s59.1-26.4,59.1-59.1S107.6,15.9,75,15.9
						S15.9,42.4,15.9,75"/>
				</g>
			</g>
		</g>
		<g>
			<g>
				<g>
					<g>
						<defs>
							<path id="SVGID_54_" d="M15.9,75c0,32.6,26.5,59.1,59.1,59.1s59.1-26.4,59.1-59.1S107.6,15.9,75,15.9S15.9,42.4,15.9,75"/>
						</defs>
						<clipPath id="SVGID_55_">
							<use xlink:href="#SVGID_54_"  style="overflow:visible;"/>
						</clipPath>
						<path class="st17" d="M74.3,64h2v-4.9c0-0.5-0.4-1-1-1s-1,0.4-1,1V64L74.3,64z M77.3,66h-3.9c-0.5,0-1-0.4-1-1v-5.9
							c0-1.6,1.3-3,2.9-3s2.9,1.3,2.9,3V65C78.2,65.6,77.8,66,77.3,66"/>
					</g>
				</g>
				<g>
					<path id="SVGID_33_" class="st1" d="M15.9,75c0,32.6,26.5,59.1,59.1,59.1s59.1-26.4,59.1-59.1S107.6,15.9,75,15.9
						S15.9,42.4,15.9,75"/>
				</g>
			</g>
		</g>
		<g>
			<g>
				<g>
					<g>
						<defs>
							<path id="SVGID_56_" d="M15.9,75c0,32.6,26.5,59.1,59.1,59.1s59.1-26.4,59.1-59.1S107.6,15.9,75,15.9S15.9,42.4,15.9,75"/>
						</defs>
						<clipPath id="SVGID_57_">
							<use xlink:href="#SVGID_56_"  style="overflow:visible;"/>
						</clipPath>
						<path class="st18" d="M75.3,58.1c-0.5,0-1-0.4-1-1v-3.9c0-0.5,0.4-1,1-1s1,0.4,1,1v3.9C76.3,57.7,75.8,58.1,75.3,58.1"/>
					</g>
				</g>
				<g>
					<path id="SVGID_35_" class="st1" d="M15.9,75c0,32.6,26.5,59.1,59.1,59.1s59.1-26.4,59.1-59.1S107.6,15.9,75,15.9
						S15.9,42.4,15.9,75"/>
				</g>
			</g>
		</g>
		<g>
			<g>
				<g>
					<g>
						<defs>
							<path id="SVGID_58_" d="M15.9,75c0,32.6,26.5,59.1,59.1,59.1s59.1-26.4,59.1-59.1S107.6,15.9,75,15.9S15.9,42.4,15.9,75"/>
						</defs>
						<clipPath id="SVGID_59_">
							<use xlink:href="#SVGID_58_"  style="overflow:visible;"/>
						</clipPath>
						<path class="st19" d="M66.4,95.5h55v-5.9h-55V95.5z M122.5,97.5h-57c-0.5,0-1-0.4-1-1v-7.9c0-0.5,0.4-1,1-1h57
							c0.5,0,1,0.4,1,1v7.9C123.4,97,123,97.5,122.5,97.5"/>
					</g>
				</g>
				<g>
					<path id="SVGID_37_" class="st1" d="M15.9,75c0,32.6,26.5,59.1,59.1,59.1s59.1-26.4,59.1-59.1S107.6,15.9,75,15.9
						S15.9,42.4,15.9,75"/>
				</g>
			</g>
		</g>
		<g>
			<g>
				<g>
					<g>
						<defs>
							<path id="SVGID_60_" d="M15.9,75c0,32.6,26.5,59.1,59.1,59.1s59.1-26.4,59.1-59.1S107.6,15.9,75,15.9S15.9,42.4,15.9,75"/>
						</defs>
						<clipPath id="SVGID_61_">
							<use xlink:href="#SVGID_60_"  style="overflow:visible;"/>
						</clipPath>
						<path class="st20" d="M70.4,64h47.2V48.3H70.4V64z M118.5,66H69.4c-0.5,0-1-0.4-1-1V47.3c0-0.5,0.4-1,1-1h49.1
							c0.5,0,1,0.4,1,1V65C119.5,65.6,119.1,66,118.5,66"/>
					</g>
				</g>
				<g>
					<path id="SVGID_39_" class="st1" d="M15.9,75c0,32.6,26.5,59.1,59.1,59.1s59.1-26.4,59.1-59.1S107.6,15.9,75,15.9
						S15.9,42.4,15.9,75"/>
				</g>
			</g>
		</g>
		<g>
			<g>
				<g>
					<g>
						<defs>
							<path id="SVGID_62_" d="M15.9,75c0,32.6,26.5,59.1,59.1,59.1s59.1-26.4,59.1-59.1S107.6,15.9,75,15.9S15.9,42.4,15.9,75"/>
						</defs>
						<clipPath id="SVGID_63_">
							<use xlink:href="#SVGID_62_"  style="overflow:visible;"/>
						</clipPath>
						<path class="st21" d="M70.4,87.6h47.2V69.9H70.4V87.6z M118.5,89.6H69.4c-0.5,0-1-0.4-1-1V69c0-0.5,0.4-1,1-1h49.1
							c0.5,0,1,0.4,1,1v19.7C119.5,89.2,119.1,89.6,118.5,89.6"/>
					</g>
				</g>
				<g>
					<path id="SVGID_41_" class="st1" d="M15.9,75c0,32.6,26.5,59.1,59.1,59.1s59.1-26.4,59.1-59.1S107.6,15.9,75,15.9
						S15.9,42.4,15.9,75"/>
				</g>
			</g>
		</g>
	</g>
	<g>
		<g>
			<g>
				<g>
					<g>
						<defs>
							<rect id="SVGID_64_" x="15" y="15" width="120" height="120"/>
						</defs>
						<clipPath id="SVGID_65_">
							<use xlink:href="#SVGID_64_"  style="overflow:visible;"/>
						</clipPath>
						<circle class="st22" cx="75" cy="75" r="59.1"/>
					</g>
				</g>
			</g>
		</g>
	</g>
</g>
</svg>
