<?xml version="1.0" encoding="utf-8"?>
<!-- Generator: Adobe Illustrator 23.0.6, SVG Export Plug-In . SVG Version: 6.00 Build 0)  -->
<svg version="1.1" id="Layer_1" xmlns="http://www.w3.org/2000/svg" xmlns:xlink="http://www.w3.org/1999/xlink" x="0px" y="0px"
	 viewBox="0 0 150 150" style="enable-background:new 0 0 150 150;" xml:space="preserve">
<style type="text/css">
	.st0{clip-path:url(#SVGID_2_);fill:none;stroke:#594796;stroke-width:2;}
	.st1{clip-path:url(#SVGID_4_);}
	.st2{clip-path:url(#SVGID_6_);fill:#594796;stroke:#594796;stroke-miterlimit:10;}
	.st3{clip-path:url(#SVGID_8_);fill:#594796;stroke:#594796;stroke-miterlimit:10;}
	.st4{clip-path:url(#SVGID_10_);fill:#594796;}
	.st5{clip-path:url(#SVGID_12_);fill:#594796;stroke:#594796;}
	.st6{clip-path:url(#SVGID_14_);}
	.st7{clip-path:url(#SVGID_16_);fill:#594796;stroke:#594796;stroke-miterlimit:10;}
	.st8{clip-path:url(#SVGID_18_);fill:#594796;stroke:#594796;stroke-miterlimit:10;}
	.st9{clip-path:url(#SVGID_20_);fill:#594796;stroke:#594796;stroke-miterlimit:10;}
	.st10{clip-path:url(#SVGID_22_);fill:#594796;stroke:#594796;stroke-miterlimit:10;}
	.st11{clip-path:url(#SVGID_24_);fill:#594796;stroke:#594796;}
	.st12{clip-path:url(#SVGID_26_);fill:#594796;stroke:#594796;stroke-miterlimit:10;}
	.st13{clip-path:url(#SVGID_28_);fill:#594796;stroke:#594796;stroke-miterlimit:10;}
	.st14{clip-path:url(#SVGID_30_);fill:#594796;stroke:#594796;stroke-miterlimit:10;}
	.st15{clip-path:url(#SVGID_32_);fill:#594796;stroke:#594796;stroke-miterlimit:10;}
	.st16{clip-path:url(#SVGID_34_);fill:#594796;stroke:#594796;stroke-miterlimit:10;}
	.st17{clip-path:url(#SVGID_36_);fill:#594796;stroke:#594796;stroke-miterlimit:10;}
	.st18{clip-path:url(#SVGID_38_);fill:#594796;stroke:#594796;stroke-miterlimit:10;}
	.st19{clip-path:url(#SVGID_40_);fill:#594796;stroke:#594796;stroke-miterlimit:10;}
	.st20{clip-path:url(#SVGID_42_);fill:#594796;stroke:#594796;stroke-miterlimit:10;}
	.st21{clip-path:url(#SVGID_44_);fill:#594796;stroke:#594796;stroke-miterlimit:10;}
	.st22{clip-path:url(#SVGID_46_);fill:#594796;stroke:#594796;stroke-miterlimit:10;}
	.st23{clip-path:url(#SVGID_48_);}
	.st24{clip-path:url(#SVGID_50_);fill:#594796;stroke:#594796;stroke-width:0.5;stroke-miterlimit:10;}
	.st25{clip-path:url(#SVGID_52_);fill:#594796;stroke:#594796;stroke-width:0.5;stroke-miterlimit:10;}
	.st26{clip-path:url(#SVGID_54_);fill:#594796;stroke:#594796;stroke-width:0.5;stroke-miterlimit:10;}
	.st27{clip-path:url(#SVGID_56_);fill:#594796;stroke:#594796;stroke-width:0.5;stroke-miterlimit:10;}
	.st28{clip-path:url(#SVGID_58_);fill:#594796;stroke:#594796;stroke-width:0.5;stroke-miterlimit:10;}
	.st29{clip-path:url(#SVGID_60_);fill:#594796;stroke:#594796;stroke-width:0.5;stroke-miterlimit:10;}
	.st30{clip-path:url(#SVGID_62_);fill:none;stroke:#594796;stroke-width:2;}
</style>
<g>
	<g>
		<g>
			<g>
				<defs>
					<rect id="SVGID_1_" x="15" y="15" width="120" height="120"/>
				</defs>
				<clipPath id="SVGID_2_">
					<use xlink:href="#SVGID_1_"  style="overflow:visible;"/>
				</clipPath>
				<circle class="st0" cx="75" cy="75" r="59.1"/>
			</g>
		</g>
	</g>
	<g>
		<g>
			<g>
				<g>
					<defs>
						<path id="SVGID_3_" d="M16.2,75c0,32.5,26.3,58.8,58.8,58.8s58.8-26.3,58.8-58.8S107.4,16.2,75,16.2S16.2,42.5,16.2,75"/>
					</defs>
					<clipPath id="SVGID_4_">
						<use xlink:href="#SVGID_3_"  style="overflow:visible;"/>
					</clipPath>
					<g class="st1">
						<g>
							<g>
								<defs>
									<rect id="SVGID_5_" x="27.4" y="38.2" width="93.5" height="70.5"/>
								</defs>
								<clipPath id="SVGID_6_">
									<use xlink:href="#SVGID_5_"  style="overflow:visible;"/>
								</clipPath>
								<path class="st2" d="M53.1,47.1v58.6c0,1,0.8,1.8,1.8,1.8h36.5c1,0,1.8-0.8,1.8-1.8V41.2c0-1-0.8-1.8-1.8-1.8H54.9
									c-1,0-1.8,0.8-1.8,1.8V47.1 M51.9,48v-6.8c0-1.7,1.4-3,3.1-3h36.5c1.7,0,3.1,1.3,3.1,3v64.5c0,1.7-1.4,3-3.1,3H54.9
									c-1.7,0-3.1-1.3-3.1-3V48"/>
							</g>
						</g>
						<g>
							<g>
								<defs>
									<rect id="SVGID_7_" x="27.4" y="38.2" width="93.5" height="70.5"/>
								</defs>
								<clipPath id="SVGID_8_">
									<use xlink:href="#SVGID_7_"  style="overflow:visible;"/>
								</clipPath>
								<path class="st3" d="M93.9,107.5h3.6c1,0,1.8-0.8,1.8-1.8V41.2c0-1-0.8-1.8-1.8-1.8h-3.6c0.4,0.5,0.6,1.1,0.6,1.8v64.5
									C94.5,106.4,94.2,107,93.9,107.5 M97.5,108.7h-6.1c-0.3,0-0.6-0.3-0.6-0.6s0.3-0.6,0.6-0.6c1,0,1.8-0.8,1.8-1.8V41.2
									c0-1-0.8-1.8-1.8-1.8c-0.3,0-0.6-0.3-0.6-0.6s0.3-0.6,0.6-0.6h6.1c1.7,0,3.1,1.3,3.1,3v64.5
									C100.6,107.3,99.2,108.7,97.5,108.7"/>
							</g>
						</g>
					</g>
				</g>
			</g>
			<g>
				<g>
					<defs>
						<path id="SVGID_9_" d="M16.2,75c0,32.5,26.3,58.8,58.8,58.8s58.8-26.3,58.8-58.8S107.4,16.2,75,16.2S16.2,42.5,16.2,75"/>
					</defs>
					<clipPath id="SVGID_10_">
						<use xlink:href="#SVGID_9_"  style="overflow:visible;"/>
					</clipPath>
					<rect x="52.5" y="46.7" class="st4" width="41.4" height="1.2"/>
				</g>
			</g>
			<g>
				<g>
					<defs>
						<path id="SVGID_11_" d="M16.2,75c0,32.5,26.3,58.8,58.8,58.8s58.8-26.3,58.8-58.8S107.4,16.2,75,16.2S16.2,42.5,16.2,75"/>
					</defs>
					<clipPath id="SVGID_12_">
						<use xlink:href="#SVGID_11_"  style="overflow:visible;"/>
					</clipPath>
					<rect x="52.5" y="96.8" class="st5" width="41.4" height="1.2"/>
				</g>
			</g>
			<g>
				<g>
					<defs>
						<path id="SVGID_13_" d="M16.2,75c0,32.5,26.3,58.8,58.8,58.8s58.8-26.3,58.8-58.8S107.4,16.2,75,16.2S16.2,42.5,16.2,75"/>
					</defs>
					<clipPath id="SVGID_14_">
						<use xlink:href="#SVGID_13_"  style="overflow:visible;"/>
					</clipPath>
					<g class="st6">
						<g>
							<g>
								<defs>
									<rect id="SVGID_15_" x="27.4" y="38.2" width="93.5" height="70.5"/>
								</defs>
								<clipPath id="SVGID_16_">
									<use xlink:href="#SVGID_15_"  style="overflow:visible;"/>
								</clipPath>
								<path class="st7" d="M53.8,60h6.8L68,47.9h-6.8L53.8,60z M60.9,61.2h-8.3c-0.2,0-0.4-0.1-0.5-0.3c-0.1-0.2-0.1-0.4,0-0.6
									L60.2,47c0.1-0.2,0.3-0.3,0.5-0.3H69c0.2,0,0.4,0.1,0.5,0.3c0.1,0.2,0.1,0.4,0,0.6l-8.1,13.3C61.4,61.1,61.2,61.2,60.9,61.2
									"/>
							</g>
						</g>
						<g>
							<g>
								<defs>
									<rect id="SVGID_17_" x="27.4" y="38.2" width="93.5" height="70.5"/>
								</defs>
								<clipPath id="SVGID_18_">
									<use xlink:href="#SVGID_17_"  style="overflow:visible;"/>
								</clipPath>
								<path class="st8" d="M45.5,60h6.8l7.4-12.1h-6.8L45.5,60z M52.7,61.2h-8.3c-0.2,0-0.4-0.1-0.5-0.3c-0.1-0.2-0.1-0.4,0-0.6
									L52,47c0.1-0.2,0.3-0.3,0.5-0.3h8.3c0.2,0,0.4,0.1,0.5,0.3c0.1,0.2,0.1,0.4,0,0.6l-8.1,13.3C53.1,61.1,52.9,61.2,52.7,61.2"
									/>
							</g>
						</g>
						<g>
							<g>
								<defs>
									<rect id="SVGID_19_" x="27.4" y="38.2" width="93.5" height="70.5"/>
								</defs>
								<clipPath id="SVGID_20_">
									<use xlink:href="#SVGID_19_"  style="overflow:visible;"/>
								</clipPath>
								<path class="st9" d="M70.3,60h6.8l7.4-12.1h-6.8L70.3,60z M77.5,61.2h-8.3c-0.2,0-0.4-0.1-0.5-0.3c-0.1-0.2-0.1-0.4,0-0.6
									L76.8,47c0.1-0.2,0.3-0.3,0.5-0.3h8.3c0.2,0,0.4,0.1,0.5,0.3c0.1,0.2,0.1,0.4,0,0.6L78,60.9C77.9,61.1,77.7,61.2,77.5,61.2"
									/>
							</g>
						</g>
						<g>
							<g>
								<defs>
									<rect id="SVGID_21_" x="27.4" y="38.2" width="93.5" height="70.5"/>
								</defs>
								<clipPath id="SVGID_22_">
									<use xlink:href="#SVGID_21_"  style="overflow:visible;"/>
								</clipPath>
								<path class="st10" d="M78.6,60h6.8l7.4-12.1h-6.8L78.6,60z M85.8,61.2h-8.3c-0.2,0-0.4-0.1-0.5-0.3c-0.1-0.2-0.1-0.4,0-0.6
									L85.1,47c0.1-0.2,0.3-0.3,0.5-0.3h8.3c0.2,0,0.4,0.1,0.5,0.3c0.1,0.2,0.1,0.4,0,0.6l-8.1,13.3C86.2,61.1,86,61.2,85.8,61.2"
									/>
							</g>
						</g>
						<g>
							<g>
								<defs>
									<rect id="SVGID_23_" x="27.4" y="38.2" width="93.5" height="70.5"/>
								</defs>
								<clipPath id="SVGID_24_">
									<use xlink:href="#SVGID_23_"  style="overflow:visible;"/>
								</clipPath>
								<path class="st11" d="M86.9,60h2.1l4.3-7.1v-3.4L86.9,60z M89.3,61.2h-3.5c-0.2,0-0.4-0.1-0.5-0.3c-0.1-0.2-0.1-0.4,0-0.6
									L93.4,47c0.1-0.2,0.4-0.3,0.7-0.3c0.3,0.1,0.4,0.3,0.4,0.6v5.8c0,0.1,0,0.2-0.1,0.3l-4.6,7.5C89.7,61.1,89.5,61.2,89.3,61.2
									"/>
							</g>
						</g>
						<g>
							<g>
								<defs>
									<rect id="SVGID_25_" x="27.4" y="38.2" width="93.5" height="70.5"/>
								</defs>
								<clipPath id="SVGID_26_">
									<use xlink:href="#SVGID_25_"  style="overflow:visible;"/>
								</clipPath>
								<path class="st12" d="M62,60h6.8l7.4-12.1h-6.8L62,60z M69.2,61.2h-8.3c-0.2,0-0.4-0.1-0.5-0.3c-0.1-0.2-0.1-0.4,0-0.6
									L68.5,47c0.1-0.2,0.3-0.3,0.5-0.3h8.3c0.2,0,0.4,0.1,0.5,0.3c0.1,0.2,0.1,0.4,0,0.6l-8.1,13.3
									C69.6,61.1,69.4,61.2,69.2,61.2"/>
							</g>
						</g>
						<g>
							<g>
								<defs>
									<rect id="SVGID_27_" x="27.4" y="38.2" width="93.5" height="70.5"/>
								</defs>
								<clipPath id="SVGID_28_">
									<use xlink:href="#SVGID_27_"  style="overflow:visible;"/>
								</clipPath>
								<path class="st13" d="M45,61.2V63c0,1.9,1.6,3.4,3.5,3.4c2,0,3.5-1.5,3.5-3.4v-1.8C52.1,61.2,45,61.2,45,61.2z M48.5,67.6
									c-2.6,0-4.8-2.1-4.8-4.6v-2.4c0-0.3,0.3-0.6,0.6-0.6h8.3c0.3,0,0.6,0.3,0.6,0.6V63C53.3,65.6,51.2,67.6,48.5,67.6"/>
							</g>
						</g>
						<g>
							<g>
								<defs>
									<rect id="SVGID_29_" x="27.4" y="38.2" width="93.5" height="70.5"/>
								</defs>
								<clipPath id="SVGID_30_">
									<use xlink:href="#SVGID_29_"  style="overflow:visible;"/>
								</clipPath>
								<path class="st14" d="M53.3,61.2V63c0,1.9,1.6,3.4,3.5,3.4c1.9,0,3.5-1.5,3.5-3.4v-1.8C60.3,61.2,53.3,61.2,53.3,61.2z
									 M56.8,67.6c-2.6,0-4.8-2.1-4.8-4.6v-2.4c0-0.3,0.3-0.6,0.6-0.6H61c0.3,0,0.6,0.3,0.6,0.6V63C61.6,65.6,59.4,67.6,56.8,67.6
									"/>
							</g>
						</g>
						<g>
							<g>
								<defs>
									<rect id="SVGID_31_" x="27.4" y="38.2" width="93.5" height="70.5"/>
								</defs>
								<clipPath id="SVGID_32_">
									<use xlink:href="#SVGID_31_"  style="overflow:visible;"/>
								</clipPath>
								<path class="st15" d="M61.6,61.2V63c0,1.9,1.6,3.4,3.5,3.4c1.9,0,3.5-1.5,3.5-3.4v-1.8C68.6,61.2,61.6,61.2,61.6,61.2z
									 M65.1,67.6c-2.6,0-4.8-2.1-4.8-4.6v-2.4c0-0.3,0.3-0.6,0.6-0.6h8.3c0.3,0,0.6,0.3,0.6,0.6V63
									C69.8,65.6,67.7,67.6,65.1,67.6"/>
							</g>
						</g>
						<g>
							<g>
								<defs>
									<rect id="SVGID_33_" x="27.4" y="38.2" width="93.5" height="70.5"/>
								</defs>
								<clipPath id="SVGID_34_">
									<use xlink:href="#SVGID_33_"  style="overflow:visible;"/>
								</clipPath>
								<path class="st16" d="M69.8,61.2V63c0,1.9,1.6,3.4,3.5,3.4c1.9,0,3.5-1.5,3.5-3.4v-1.8C76.9,61.2,69.8,61.2,69.8,61.2z
									 M73.4,67.6c-2.6,0-4.8-2.1-4.8-4.6v-2.4c0-0.3,0.3-0.6,0.6-0.6h8.3c0.3,0,0.6,0.3,0.6,0.6V63C78.1,65.6,76,67.6,73.4,67.6"
									/>
							</g>
						</g>
						<g>
							<g>
								<defs>
									<rect id="SVGID_35_" x="27.4" y="38.2" width="93.5" height="70.5"/>
								</defs>
								<clipPath id="SVGID_36_">
									<use xlink:href="#SVGID_35_"  style="overflow:visible;"/>
								</clipPath>
								<path class="st17" d="M78.1,61.2V63c0,1.9,1.6,3.4,3.5,3.4s3.5-1.5,3.5-3.4v-1.8C85.2,61.2,78.1,61.2,78.1,61.2z M81.6,67.6
									c-2.6,0-4.8-2.1-4.8-4.6v-2.4c0-0.3,0.3-0.6,0.6-0.6h8.3c0.3,0,0.6,0.3,0.6,0.6V63C86.4,65.6,84.3,67.6,81.6,67.6"/>
							</g>
						</g>
						<g>
							<g>
								<defs>
									<rect id="SVGID_37_" x="27.4" y="38.2" width="93.5" height="70.5"/>
								</defs>
								<clipPath id="SVGID_38_">
									<use xlink:href="#SVGID_37_"  style="overflow:visible;"/>
								</clipPath>
								<path class="st18" d="M60.7,96.8h24.9V72.6H60.7V96.8z M86.2,98H60.1c-0.3,0-0.6-0.3-0.6-0.6V72c0-0.3,0.3-0.6,0.6-0.6h26.1
									c0.3,0,0.6,0.3,0.6,0.6v25.5C86.8,97.8,86.6,98,86.2,98"/>
							</g>
						</g>
					</g>
				</g>
			</g>
			<g>
				<g>
					<defs>
						<path id="SVGID_39_" d="M16.2,75c0,32.5,26.3,58.8,58.8,58.8s58.8-26.3,58.8-58.8S107.4,16.2,75,16.2S16.2,42.5,16.2,75"/>
					</defs>
					<clipPath id="SVGID_40_">
						<use xlink:href="#SVGID_39_"  style="overflow:visible;"/>
					</clipPath>
					<rect x="60.1" y="76.6" class="st19" width="26.1" height="1.2"/>
				</g>
			</g>
			<g>
				<g>
					<defs>
						<path id="SVGID_41_" d="M16.2,75c0,32.5,26.3,58.8,58.8,58.8s58.8-26.3,58.8-58.8S107.4,16.2,75,16.2S16.2,42.5,16.2,75"/>
					</defs>
					<clipPath id="SVGID_42_">
						<use xlink:href="#SVGID_41_"  style="overflow:visible;"/>
					</clipPath>
					<rect x="72.6" y="77.2" class="st20" width="1.2" height="20.2"/>
				</g>
			</g>
			<g>
				<g>
					<defs>
						<path id="SVGID_43_" d="M16.2,75c0,32.5,26.3,58.8,58.8,58.8s58.8-26.3,58.8-58.8S107.4,16.2,75,16.2S16.2,42.5,16.2,75"/>
					</defs>
					<clipPath id="SVGID_44_">
						<use xlink:href="#SVGID_43_"  style="overflow:visible;"/>
					</clipPath>
					<rect x="69.5" y="84.7" class="st21" width="1.2" height="2.6"/>
				</g>
			</g>
			<g>
				<g>
					<defs>
						<path id="SVGID_45_" d="M16.2,75c0,32.5,26.3,58.8,58.8,58.8s58.8-26.3,58.8-58.8S107.4,16.2,75,16.2S16.2,42.5,16.2,75"/>
					</defs>
					<clipPath id="SVGID_46_">
						<use xlink:href="#SVGID_45_"  style="overflow:visible;"/>
					</clipPath>
					<rect x="75.6" y="84.7" class="st22" width="1.2" height="2.6"/>
				</g>
			</g>
			<g>
				<g>
					<defs>
						<path id="SVGID_47_" d="M16.2,75c0,32.5,26.3,58.8,58.8,58.8s58.8-26.3,58.8-58.8S107.4,16.2,75,16.2S16.2,42.5,16.2,75"/>
					</defs>
					<clipPath id="SVGID_48_">
						<use xlink:href="#SVGID_47_"  style="overflow:visible;"/>
					</clipPath>
					<g class="st23">
						<g>
							<g>
								<defs>
									<rect id="SVGID_49_" x="27.4" y="38.2" width="93.5" height="70.5"/>
								</defs>
								<clipPath id="SVGID_50_">
									<use xlink:href="#SVGID_49_"  style="overflow:visible;"/>
								</clipPath>
								<path class="st24" d="M113.4,89.5c4.2-4.2,6.6-9.9,6.6-15.8s-2.3-11.6-6.6-15.8c-0.2-0.2-0.6-0.2-0.8,0s-0.2,0.6,0,0.8
									c4,4,6.2,9.3,6.2,15c0,5.7-2.2,11-6.2,15c-0.1,0.1-0.2,0.3-0.2,0.4s0.1,0.3,0.2,0.4C112.8,89.8,113.2,89.8,113.4,89.5"/>
							</g>
						</g>
						<g>
							<g>
								<defs>
									<rect id="SVGID_51_" x="27.4" y="38.2" width="93.5" height="70.5"/>
								</defs>
								<clipPath id="SVGID_52_">
									<use xlink:href="#SVGID_51_"  style="overflow:visible;"/>
								</clipPath>
								<path class="st25" d="M111,61.3c-0.2-0.2-0.6-0.2-0.8,0c-0.1,0.1-0.2,0.3-0.2,0.4s0.1,0.3,0.2,0.4c6.4,6.4,6.4,16.8,0,23.2
									c-0.2,0.2-0.2,0.6,0,0.8c0.2,0.2,0.6,0.2,0.8,0C117.8,79.3,117.8,68.1,111,61.3"/>
							</g>
						</g>
						<g>
							<g>
								<defs>
									<rect id="SVGID_53_" x="27.4" y="38.2" width="93.5" height="70.5"/>
								</defs>
								<clipPath id="SVGID_54_">
									<use xlink:href="#SVGID_53_"  style="overflow:visible;"/>
								</clipPath>
								<path class="st26" d="M111.2,73.7c0-3.4-1.3-6.6-3.7-9c-0.2-0.2-0.6-0.2-0.8,0s-0.2,0.6,0,0.8c2.2,2.2,3.4,5.1,3.4,8.2
									s-1.2,6-3.4,8.2c-0.1,0.1-0.2,0.3-0.2,0.4s0.1,0.3,0.2,0.4c0.2,0.2,0.6,0.2,0.8,0C109.9,80.3,111.2,77.1,111.2,73.7"/>
							</g>
						</g>
						<g>
							<g>
								<defs>
									<rect id="SVGID_55_" x="27.4" y="38.2" width="93.5" height="70.5"/>
								</defs>
								<clipPath id="SVGID_56_">
									<use xlink:href="#SVGID_55_"  style="overflow:visible;"/>
								</clipPath>
								<path class="st27" d="M35,57.8c-4.2,4.2-6.5,9.9-6.5,15.9c0,6,2.3,11.6,6.5,15.8c0.2,0.2,0.6,0.2,0.8,0
									c0.2-0.2,0.2-0.6,0-0.8c-4-4-6.2-9.3-6.2-15s2.2-11,6.2-15c0.1-0.1,0.2-0.3,0.2-0.4s-0.1-0.3-0.2-0.4
									C35.6,57.6,35.2,57.6,35,57.8"/>
							</g>
						</g>
						<g>
							<g>
								<defs>
									<rect id="SVGID_57_" x="27.4" y="38.2" width="93.5" height="70.5"/>
								</defs>
								<clipPath id="SVGID_58_">
									<use xlink:href="#SVGID_57_"  style="overflow:visible;"/>
								</clipPath>
								<path class="st28" d="M37.4,86.1c0.2,0.2,0.6,0.2,0.8,0c0.1-0.1,0.2-0.3,0.2-0.4c0-0.2-0.1-0.3-0.2-0.4
									c-6.4-6.4-6.4-16.8,0-23.2c0.2-0.2,0.2-0.6,0-0.8c-0.2-0.2-0.6-0.2-0.8,0C30.5,68.1,30.5,79.3,37.4,86.1"/>
							</g>
						</g>
						<g>
							<g>
								<defs>
									<rect id="SVGID_59_" x="27.4" y="38.2" width="93.5" height="70.5"/>
								</defs>
								<clipPath id="SVGID_60_">
									<use xlink:href="#SVGID_59_"  style="overflow:visible;"/>
								</clipPath>
								<path class="st29" d="M37.1,73.7c0,3.4,1.3,6.6,3.7,9c0.2,0.2,0.6,0.2,0.8,0c0.2-0.2,0.2-0.6,0-0.8
									c-2.2-2.2-3.4-5.1-3.4-8.2s1.2-6,3.4-8.2c0.1-0.1,0.2-0.3,0.2-0.4s-0.1-0.3-0.2-0.4c-0.2-0.2-0.6-0.2-0.8,0
									C38.4,67.1,37.1,70.3,37.1,73.7"/>
							</g>
						</g>
					</g>
				</g>
			</g>
		</g>
		<g>
			<g>
				<g>
					<defs>
						<rect id="SVGID_61_" x="15.3" y="15.3" width="119.4" height="119.4"/>
					</defs>
					<clipPath id="SVGID_62_">
						<use xlink:href="#SVGID_61_"  style="overflow:visible;"/>
					</clipPath>
					<circle class="st30" cx="75" cy="75" r="58.8"/>
				</g>
			</g>
		</g>
	</g>
</g>
</svg>
