<?xml version="1.0" encoding="utf-8"?>
<!-- Generator: Adobe Illustrator 21.1.0, SVG Export Plug-In . SVG Version: 6.00 Build 0)  -->
<svg version="1.1" id="Layer_1" xmlns="http://www.w3.org/2000/svg" xmlns:xlink="http://www.w3.org/1999/xlink" x="0px" y="0px"
	 viewBox="0 0 512 512" style="enable-background:new 0 0 512 512;" xml:space="preserve">
<style type="text/css">
	.st0{fill:#A7A9AC;}
	.st1{fill:#E0E0E0;}
</style>
<g>
	<g>
		<path class="st0" d="M281.3,120.8c-15.2-15.1-35.3-23.4-56.8-23.4c-21.4,0-41.6,8.3-56.8,23.4c-31.3,31.1-31.3,81.7,0,112.8
			c15.2,15.1,35.3,23.4,56.8,23.4c21.4,0,41.6-8.3,56.8-23.4s23.5-35.1,23.5-56.4S296.5,135.9,281.3,120.8z M174.2,127.3
			c13.4-13.3,31.3-20.7,50.3-20.7s36.9,7.4,50.3,20.7c10.6,10.5,17.4,23.8,19.9,38.2l-24.9,24.2c-2.4-1.3-5.1-2.1-8-2.1
			c-5.6,0-10.6,2.9-13.5,7.2l-36.6-11.4c0-0.1,0-0.2,0-0.3c0-8.9-7.3-16.2-16.3-16.2s-16.3,7.3-16.3,16.2c0,2.9,0.8,5.7,2.2,8
			L162,210.9C147.4,184.1,151.5,149.9,174.2,127.3z M269,203.8c0,3.9-3.2,7.1-7.2,7.1c-3.9,0-7.2-3.2-7.2-7.1s3.2-7.1,7.2-7.1
			S269,199.9,269,203.8z M202.5,183.1c0,3.9-3.2,7.1-7.2,7.1c-3.9,0-7.2-3.2-7.2-7.1c0-3.9,3.2-7.1,7.2-7.1S202.5,179.2,202.5,183.1
			z M274.9,227.2c-13.4,13.3-31.3,20.7-50.3,20.7s-36.9-7.4-50.3-20.7c-2.7-2.7-5.1-5.5-7.2-8.4l20.8-21.4c2.3,1.2,4.8,1.9,7.6,1.9
			c5.6,0,10.6-2.9,13.5-7.2l36.6,11.4c0,0.1,0,0.2,0,0.3c0,8.9,7.3,16.2,16.3,16.2c9,0,16.3-7.3,16.3-16.2c0-2.8-0.7-5.3-1.9-7.6
			l19.5-18.9C295.7,196.1,288.3,213.9,274.9,227.2z"/>
	</g>
</g>
<g>
	<g>
		<path class="st0" d="M184.1,130.9l6,6.9c14.2-12.2,34.1-16,51.9-9.9l3-8.6C224,112.1,200.7,116.5,184.1,130.9z"/>
	</g>
</g>
<g>
	<g>
		<path class="st0" d="M256.7,124.8l-4.8,7.8c2.4,1.5,4.7,3.1,6.9,5l6-6.9C262.3,128.5,259.5,126.6,256.7,124.8z"/>
	</g>
</g>
<g>
	<g>
		<path class="st0" d="M235.5,228.4c-10.3,2.2-20.9,1.2-30.6-2.6l-3.4,8.4c7.4,2.9,15.2,4.4,23,4.4c4.3,0,8.6-0.4,12.9-1.3
			L235.5,228.4z"/>
	</g>
</g>
<g>
	<g>
		<path class="st0" d="M339.1,250.2l-6.6,6.6L316,239.3c19.5-28.3,24.2-63.7,14.1-95.5l13.1-12.7c2.3,1.2,4.9,1.9,7.7,1.9
			c9,0,16.3-7.3,16.3-16.2c0-2.6-0.6-5.1-1.8-7.3l28.1-27.3v14.1h9.1V67H373v9.1h13.8L359.1,103c-2.4-1.4-5.2-2.2-8.2-2.2
			c-9,0-16.3,7.3-16.3,16.2c0,2.9,0.8,5.5,2.1,7.9l-10,9.7c-5.4-12.8-13.3-24.7-23.7-35.1c-43.2-42.9-113.4-42.9-156.6,0
			c-38.5,38.2-42.7,97.8-12.6,140.6l-7.7,7.9c-2.3-1.2-4.8-1.9-7.6-1.9c-9,0-16.3,7.3-16.3,16.2c0,8.9,7.3,16.2,16.3,16.2
			s16.3-7.3,16.3-16.2c0-2.9-0.8-5.7-2.2-8l6.7-6.9c2.2,2.6,4.5,5.2,7,7.6c21.6,21.4,50,32.2,78.3,32.2c21.8,0,43.5-6.3,62.2-19
			l16.5,17.5l-6.9,6.8l80,79.2l42.7-42.4L339.1,250.2z M350.9,109.8c3.9,0,7.2,3.2,7.2,7.1c0,3.9-3.2,7.1-7.2,7.1
			c-3.9,0-7.2-3.2-7.2-7.1C343.7,113,346.9,109.8,350.9,109.8z M118.4,269.5c-3.9,0-7.2-3.2-7.2-7.1s3.2-7.1,7.2-7.1
			c3.9,0,7.2,3.2,7.2,7.1C125.5,266.3,122.3,269.5,118.4,269.5z M152.7,248.6c-39.6-39.4-39.6-103.4,0-142.7
			c19.8-19.7,45.8-29.5,71.8-29.5s52,9.8,71.8,29.5c39.6,39.4,39.6,103.4,0,142.7C256.8,288,192.3,288,152.7,248.6z M294.2,262.8
			c3-2.4,5.9-5,8.7-7.8c2.7-2.7,5.2-5.4,7.6-8.3l15.6,16.5l-16.2,16.1L294.2,262.8z M376.4,358.9l-67-66.3l29.7-29.5l67,66.3
			L376.4,358.9z"/>
	</g>
</g>
<g>
	<g>
		<polygon class="st0" points="339.1,276.2 326,289.2 332.5,295.7 339.1,289.1 364.3,314.2 370.8,307.7 		"/>
	</g>
</g>
<g>
	<g>
		<polygon class="st0" points="372.2,321.9 378.7,315.5 385.4,322.2 379,328.7 		"/>
	</g>
</g>
<g>
	<g>
		<rect x="141.6" y="334.9" class="st1" width="9.1" height="9.9"/>
	</g>
</g>
<g>
	<g>
		<rect x="141.6" y="390.3" class="st1" width="9.1" height="9.9"/>
	</g>
</g>
<g>
	<g>
		<rect x="226.9" y="311" class="st0" width="9.1" height="9.9"/>
	</g>
</g>
<g>
	<g>
		<rect x="358" y="229.2" class="st0" width="9.1" height="9.9"/>
	</g>
</g>
<g>
	<g>
		<rect x="368.4" y="150.4" class="st0" width="9.1" height="9.9"/>
	</g>
</g>
<g>
	<g>
		<rect x="398.7" y="192.2" class="st0" width="9.1" height="9.9"/>
	</g>
</g>
</svg>
