<?xml version="1.0" encoding="utf-8"?>
<!-- Generator: Adobe Illustrator 23.0.6, SVG Export Plug-In . SVG Version: 6.00 Build 0)  -->
<svg version="1.1" id="Layer_1" xmlns="http://www.w3.org/2000/svg" xmlns:xlink="http://www.w3.org/1999/xlink" x="0px" y="0px"
	 viewBox="0 0 150 150" style="enable-background:new 0 0 150 150;" xml:space="preserve">
<style type="text/css">
	.st0{clip-path:url(#SVGID_2_);fill:none;stroke:#594796;stroke-width:2;}
	.st1{clip-path:url(#SVGID_4_);fill:#594796;stroke:#594796;stroke-miterlimit:10;}
	.st2{clip-path:url(#SVGID_6_);fill:#594796;stroke:#594796;stroke-miterlimit:10;}
	.st3{clip-path:url(#SVGID_8_);fill:#594796;stroke:#594796;stroke-miterlimit:10;}
	.st4{clip-path:url(#SVGID_10_);fill:#594796;stroke:#594796;stroke-miterlimit:10;}
	.st5{clip-path:url(#SVGID_12_);fill:#594796;stroke:#594796;stroke-miterlimit:10;}
	.st6{clip-path:url(#SVGID_14_);fill:#594796;stroke:#594796;stroke-miterlimit:10;}
	.st7{clip-path:url(#SVGID_16_);fill:#594796;stroke:#594796;stroke-miterlimit:10;}
	.st8{clip-path:url(#SVGID_18_);fill:#594796;stroke:#594796;stroke-miterlimit:10;}
	.st9{clip-path:url(#SVGID_20_);fill:#594796;stroke:#594796;stroke-miterlimit:10;}
	.st10{clip-path:url(#SVGID_22_);fill:#594796;stroke:#594796;stroke-miterlimit:10;}
	.st11{clip-path:url(#SVGID_24_);fill:#594796;stroke:#594796;stroke-miterlimit:10;}
	.st12{clip-path:url(#SVGID_26_);fill:#594796;stroke:#594796;stroke-miterlimit:10;}
	.st13{clip-path:url(#SVGID_28_);fill:#594796;stroke:#594796;stroke-miterlimit:10;}
	.st14{clip-path:url(#SVGID_30_);fill:#594796;stroke:#594796;stroke-miterlimit:10;}
	.st15{clip-path:url(#SVGID_32_);fill:#594796;stroke:#594796;stroke-miterlimit:10;}
	.st16{clip-path:url(#SVGID_34_);fill:#594796;stroke:#594796;stroke-miterlimit:10;}
	.st17{clip-path:url(#SVGID_36_);fill:#594796;stroke:#594796;stroke-miterlimit:10;}
	.st18{clip-path:url(#SVGID_38_);fill:#594796;stroke:#594796;stroke-miterlimit:10;}
	.st19{clip-path:url(#SVGID_40_);fill:#594796;stroke:#594796;stroke-miterlimit:10;}
	.st20{clip-path:url(#SVGID_42_);fill:none;stroke:#594796;stroke-width:2.5;}
</style>
<g>
	<g>
		<g>
			<g>
				<defs>
					<rect id="SVGID_1_" x="15" y="15" width="120" height="120"/>
				</defs>
				<clipPath id="SVGID_2_">
					<use xlink:href="#SVGID_1_"  style="overflow:visible;"/>
				</clipPath>
				<circle class="st0" cx="75" cy="75" r="59.1"/>
			</g>
		</g>
	</g>
	<g>
		<g>
			<g>
				<g>
					<defs>
						<path id="SVGID_3_" d="M16.2,75c0,32.5,26.3,58.8,58.8,58.8s58.8-26.3,58.8-58.8S107.4,16.2,75,16.2S16.2,42.5,16.2,75"/>
					</defs>
					<clipPath id="SVGID_4_">
						<use xlink:href="#SVGID_3_"  style="overflow:visible;"/>
					</clipPath>
					<path class="st1" d="M48.8,112.4h3.7c0.1,0,0.1-0.1,0.1-0.1V86.7c0-0.1,0-0.1-0.1-0.1h-3.7V112.4z M52.4,114.1h-4.5
						c-0.5,0-0.9-0.4-0.9-0.9V85.7c0-0.5,0.4-0.9,0.9-0.9h4.5c1,0,1.8,0.8,1.8,1.8v25.6C54.3,113.3,53.4,114.1,52.4,114.1"/>
				</g>
			</g>
			<g>
				<g>
					<defs>
						<path id="SVGID_5_" d="M16.2,75c0,32.5,26.3,58.8,58.8,58.8s58.8-26.3,58.8-58.8S107.4,16.2,75,16.2S16.2,42.5,16.2,75"/>
					</defs>
					<clipPath id="SVGID_6_">
						<use xlink:href="#SVGID_5_"  style="overflow:visible;"/>
					</clipPath>
					<path class="st2" d="M60,107.1c2.5,0,5.1,0.3,7.5,1l11.3,3c6.2,1.6,12.8,0.8,18.3-2.4l15.5-9.9c1.4-0.9,1.9-2.7,1.2-4.2
						c-0.8-1.6-2.7-2.3-4.4-1.5l-16.1,7.7c-1.2,0.8-2.8,1.4-5,1.9c-3.3,0.7-6.4,0.7-6.6,0.7c-0.5,0-0.9-0.4-0.9-0.9s0.4-0.9,0.9-0.9
						c3.1,0,11.9-0.8,11.9-4.4c0-0.9-0.2-1.6-0.8-2.2c-1.5-1.5-5.1-1.4-8.5-1.3c-0.8,0-1.5,0-2.3,0c-3.5,0-8.8-1.8-12.7-3.3
						c-2.4-0.9-5.1-1.3-7.8-1L54.3,90v17.5l2.6-0.3C57.9,107.1,59,107.1,60,107.1 M85.1,113.5c-2.2,0-4.5-0.3-6.7-0.9l-11.3-3
						c-3.3-0.9-6.7-1.1-10.1-0.8l-3.5,0.4c-0.2,0-0.5-0.1-0.7-0.2c-0.2-0.2-0.3-0.4-0.3-0.7V89.2c0-0.4,0.3-0.8,0.8-0.9l8.3-0.9
						c2.9-0.3,5.9,0.1,8.6,1.1c5.3,2.1,9.6,3.2,12.1,3.2c0.7,0,1.5,0,2.2,0c3.8-0.1,7.8-0.2,9.8,1.8c0.9,0.8,1.3,2,1.3,3.4
						c0,0.2,0,0.5-0.1,0.7l13.3-6.3c2.5-1.2,5.5-0.1,6.7,2.3c1.1,2.3,0.4,5.1-1.8,6.5L98.2,110c0,0,0,0,0,0
						C94.1,112.4,89.7,113.5,85.1,113.5z"/>
				</g>
			</g>
			<g>
				<g>
					<defs>
						<path id="SVGID_7_" d="M16.2,75c0,32.5,26.3,58.8,58.8,58.8s58.8-26.3,58.8-58.8S107.4,16.2,75,16.2S16.2,42.5,16.2,75"/>
					</defs>
					<clipPath id="SVGID_8_">
						<use xlink:href="#SVGID_7_"  style="overflow:visible;"/>
					</clipPath>
					<path class="st3" d="M77.6,56.9h-4.2c-0.5,0-0.9-0.4-0.9-0.9s0.4-0.9,0.9-0.9h4.2c0.8,0,1.5-0.7,1.5-1.5s-0.7-1.5-1.5-1.5h-2.7
						c-1.8,0-3.3-1.5-3.3-3.3s1.5-3.3,3.3-3.3h3.8c0.5,0,0.9,0.4,0.9,0.9s-0.4,0.9-0.9,0.9h-3.8c-0.8,0-1.5,0.7-1.5,1.5
						s0.7,1.5,1.5,1.5h2.7c1.8,0,3.3,1.5,3.3,3.3C80.8,55.4,79.4,56.9,77.6,56.9"/>
				</g>
			</g>
			<g>
				<g>
					<defs>
						<path id="SVGID_9_" d="M16.2,75c0,32.5,26.3,58.8,58.8,58.8s58.8-26.3,58.8-58.8S107.4,16.2,75,16.2S16.2,42.5,16.2,75"/>
					</defs>
					<clipPath id="SVGID_10_">
						<use xlink:href="#SVGID_9_"  style="overflow:visible;"/>
					</clipPath>
					<path class="st4" d="M76.2,58.5c-0.5,0-0.9-0.4-0.9-0.9V44.8c0-0.5,0.4-0.9,0.9-0.9c0.5,0,0.9,0.4,0.9,0.9v12.8
						C77.1,58.1,76.7,58.5,76.2,58.5"/>
				</g>
			</g>
			<g>
				<g>
					<defs>
						<path id="SVGID_11_" d="M16.2,75c0,32.5,26.3,58.8,58.8,58.8s58.8-26.3,58.8-58.8S107.4,16.2,75,16.2S16.2,42.5,16.2,75"/>
					</defs>
					<clipPath id="SVGID_12_">
						<use xlink:href="#SVGID_11_"  style="overflow:visible;"/>
					</clipPath>
					<path class="st5" d="M93.8,52.1h-2.4c-0.5,0-0.9-0.4-0.9-0.9s0.4-0.9,0.9-0.9h2.4c0.5,0,0.9,0.4,0.9,0.9
						C94.7,51.7,94.3,52.1,93.8,52.1"/>
				</g>
			</g>
			<g>
				<g>
					<defs>
						<path id="SVGID_13_" d="M16.2,75c0,32.5,26.3,58.8,58.8,58.8s58.8-26.3,58.8-58.8S107.4,16.2,75,16.2S16.2,42.5,16.2,75"/>
					</defs>
					<clipPath id="SVGID_14_">
						<use xlink:href="#SVGID_13_"  style="overflow:visible;"/>
					</clipPath>
					<path class="st6" d="M61,52.1h-2.4c-0.5,0-0.9-0.4-0.9-0.9s0.4-0.9,0.9-0.9H61c0.5,0,0.9,0.4,0.9,0.9
						C61.9,51.7,61.5,52.1,61,52.1"/>
				</g>
			</g>
			<g>
				<g>
					<defs>
						<path id="SVGID_15_" d="M16.2,75c0,32.5,26.3,58.8,58.8,58.8s58.8-26.3,58.8-58.8S107.4,16.2,75,16.2S16.2,42.5,16.2,75"/>
					</defs>
					<clipPath id="SVGID_16_">
						<use xlink:href="#SVGID_15_"  style="overflow:visible;"/>
					</clipPath>
					<path class="st7" d="M92.4,74.9L92.4,74.9L92.4,74.9z M94.8,73.2c0.8,0.1,1.5,0.5,2,1l1.7,1.7v-2.7L94.8,73.2L94.8,73.2z
						 M51.3,73.1v3.4c0,0.4,0.3,0.7,0.7,0.7h38.8c-0.1-1.1,0.2-2.2,1-3c0.6-0.6,1.3-0.9,2-1H52C51.8,73.2,51.5,73.2,51.3,73.1
						 M92,79H52c-1.3,0-2.4-1.1-2.4-2.4v-5.7c0-0.5,0.4-0.9,0.9-0.9s0.9,0.4,0.9,0.9c0,0.4,0.3,0.7,0.7,0.7h47.5
						c0.5,0,0.9,0.4,0.9,0.9v5.7c0,0.3-0.2,0.7-0.5,0.8s-0.7,0.1-0.9-0.2l-3.2-3.2c-0.3-0.3-0.8-0.5-1.3-0.5c-0.5,0-0.9,0.2-1.3,0.5
						c-0.6,0.6-0.7,1.5-0.3,2.2c0.2,0.3,0.2,0.6,0,0.9C92.6,78.8,92.3,79,92,79"/>
				</g>
			</g>
			<g>
				<g>
					<defs>
						<path id="SVGID_17_" d="M16.2,75c0,32.5,26.3,58.8,58.8,58.8s58.8-26.3,58.8-58.8S107.4,16.2,75,16.2S16.2,42.5,16.2,75"/>
					</defs>
					<clipPath id="SVGID_18_">
						<use xlink:href="#SVGID_17_"  style="overflow:visible;"/>
					</clipPath>
					<path class="st8" d="M94.9,73.3c0.7,0.1,1.4,0.5,1.9,1l1.7,1.7v-2.7L94.9,73.3C94.9,73.2,94.9,73.3,94.9,73.3z M99.4,78.9
						c-0.2,0-0.4-0.1-0.6-0.2l-3.2-3.2c-0.5-0.5-1.3-0.7-1.9-0.4c-0.3,0.1-0.7,0-0.9-0.2c-0.2-0.3-0.3-0.6-0.2-0.9
						c0.3-0.7,0.7-1.4,1.2-2.1c0.2-0.2,0.4-0.3,0.7-0.3h4.9c0.5,0,0.9,0.4,0.9,0.9v5.7c0,0.3-0.2,0.7-0.5,0.8
						C99.7,78.9,99.6,78.9,99.4,78.9"/>
				</g>
			</g>
			<g>
				<g>
					<defs>
						<path id="SVGID_19_" d="M16.2,75c0,32.5,26.3,58.8,58.8,58.8s58.8-26.3,58.8-58.8S107.4,16.2,75,16.2S16.2,42.5,16.2,75"/>
					</defs>
					<clipPath id="SVGID_20_">
						<use xlink:href="#SVGID_19_"  style="overflow:visible;"/>
					</clipPath>
					<path class="st9" d="M51.3,67.4v3.4c0,0.4,0.3,0.7,0.7,0.7h46.6v-4H52C51.8,67.5,51.5,67.5,51.3,67.4 M99.4,73.2H52
						c-1.3,0-2.4-1.1-2.4-2.4v-5.7c0-0.5,0.4-0.9,0.9-0.9s0.9,0.4,0.9,0.9c0,0.4,0.3,0.7,0.7,0.7h47.5c0.5,0,0.9,0.4,0.9,0.9v5.7
						C100.3,72.8,99.9,73.2,99.4,73.2"/>
				</g>
			</g>
			<g>
				<g>
					<defs>
						<path id="SVGID_21_" d="M16.2,75c0,32.5,26.3,58.8,58.8,58.8s58.8-26.3,58.8-58.8S107.4,16.2,75,16.2S16.2,42.5,16.2,75"/>
					</defs>
					<clipPath id="SVGID_22_">
						<use xlink:href="#SVGID_21_"  style="overflow:visible;"/>
					</clipPath>
					<path class="st10" d="M52,36.7c-0.4,0-0.7,0.3-0.7,0.7v27.7c0,0.4,0.3,0.7,0.7,0.7h46.6v-1.5c0-1.6,1.1-3,2.6-3.4V37.4
						c0-0.4-0.3-0.7-0.7-0.7H52z M99.4,67.5H52c-1.3,0-2.4-1.1-2.4-2.4V37.4c0-1.3,1.1-2.4,2.4-2.4h48.5c1.3,0,2.4,1.1,2.4,2.4v24.2
						c0,0.5-0.4,0.8-0.8,0.9c-1,0-1.8,0.8-1.8,1.8v2.4C100.3,67.1,99.9,67.5,99.4,67.5"/>
				</g>
			</g>
			<g>
				<g>
					<defs>
						<path id="SVGID_23_" d="M16.2,75c0,32.5,26.3,58.8,58.8,58.8s58.8-26.3,58.8-58.8S107.4,16.2,75,16.2S16.2,42.5,16.2,75"/>
					</defs>
					<clipPath id="SVGID_24_">
						<use xlink:href="#SVGID_23_"  style="overflow:visible;"/>
					</clipPath>
					<path class="st11" d="M94.3,74.9c-0.5,0-0.9,0.2-1.3,0.5c-0.3,0.3-0.5,0.8-0.5,1.3s0.2,0.9,0.5,1.3l7.8,7.8
						c0.3,0.3,0.8,0.5,1.3,0.5c0.5,0,0.9-0.2,1.3-0.5l7.8-7.8c0.3-0.3,0.5-0.8,0.5-1.3s-0.2-0.9-0.5-1.3c-0.3-0.3-0.8-0.5-1.3-0.5
						c-0.5,0-0.9,0.2-1.3,0.5l-3.2,3.2c-0.2,0.2-0.6,0.3-0.9,0.2c-0.3-0.1-0.5-0.4-0.5-0.8V64.3c0-1-0.8-1.8-1.8-1.8
						s-1.8,0.8-1.8,1.8v13.8c0,0.3-0.2,0.7-0.5,0.8s-0.7,0.1-0.9-0.2l-3.2-3.2C95.3,75.1,94.8,74.9,94.3,74.9 M102.1,88.2
						c-0.9,0-1.8-0.4-2.5-1.1l-7.8-7.8c-0.7-0.7-1.1-1.6-1.1-2.5c0-0.9,0.4-1.8,1.1-2.5c0.7-0.7,1.6-1.1,2.5-1.1
						c0.9,0,1.8,0.4,2.5,1.1l1.7,1.7V64.3c0-2,1.6-3.6,3.6-3.6s3.6,1.6,3.6,3.6V76l1.7-1.7c0.7-0.7,1.6-1.1,2.5-1.1s1.8,0.4,2.5,1.1
						c0.7,0.7,1.1,1.6,1.1,2.5c0,0.9-0.4,1.8-1.1,2.5l-7.8,7.8C104,87.8,103.1,88.2,102.1,88.2z"/>
				</g>
			</g>
			<g>
				<g>
					<defs>
						<path id="SVGID_25_" d="M16.2,75c0,32.5,26.3,58.8,58.8,58.8s58.8-26.3,58.8-58.8S107.4,16.2,75,16.2S16.2,42.5,16.2,75"/>
					</defs>
					<clipPath id="SVGID_26_">
						<use xlink:href="#SVGID_25_"  style="overflow:visible;"/>
					</clipPath>
					<path class="st12" d="M93.5,36.7c0.4,4,3.6,7.3,7.7,7.7v-7c0-0.4-0.3-0.7-0.7-0.7H93.5z M102,46.2c-5.7,0-10.3-4.6-10.3-10.3
						c0-0.5,0.4-0.9,0.9-0.9h7.9c1.3,0,2.4,1.1,2.4,2.4v7.9C102.9,45.8,102.5,46.2,102,46.2"/>
				</g>
			</g>
			<g>
				<g>
					<defs>
						<path id="SVGID_27_" d="M16.2,75c0,32.5,26.3,58.8,58.8,58.8s58.8-26.3,58.8-58.8S107.4,16.2,75,16.2S16.2,42.5,16.2,75"/>
					</defs>
					<clipPath id="SVGID_28_">
						<use xlink:href="#SVGID_27_"  style="overflow:visible;"/>
					</clipPath>
					<path class="st13" d="M52,36.7c-0.4,0-0.7,0.3-0.7,0.7v7c4-0.4,7.3-3.6,7.7-7.7C59,36.7,52,36.7,52,36.7z M50.5,46.2
						c-0.5,0-0.9-0.4-0.9-0.9v-7.9c0-1.3,1.1-2.4,2.4-2.4h7.9c0.5,0,0.9,0.4,0.9,0.9C60.8,41.6,56.2,46.2,50.5,46.2"/>
				</g>
			</g>
			<g>
				<g>
					<defs>
						<path id="SVGID_29_" d="M16.2,75c0,32.5,26.3,58.8,58.8,58.8s58.8-26.3,58.8-58.8S107.4,16.2,75,16.2S16.2,42.5,16.2,75"/>
					</defs>
					<clipPath id="SVGID_30_">
						<use xlink:href="#SVGID_29_"  style="overflow:visible;"/>
					</clipPath>
					<path class="st14" d="M51.3,58.1v7c0,0.4,0.3,0.7,0.7,0.7h7C58.6,61.7,55.4,58.5,51.3,58.1 M59.9,67.5H52
						c-1.3,0-2.4-1.1-2.4-2.4v-7.9c0-0.5,0.4-0.9,0.9-0.9c5.7,0,10.3,4.6,10.3,10.3C60.8,67.1,60.4,67.5,59.9,67.5"/>
				</g>
			</g>
			<g>
				<g>
					<defs>
						<path id="SVGID_31_" d="M16.2,75c0,32.5,26.3,58.8,58.8,58.8s58.8-26.3,58.8-58.8S107.4,16.2,75,16.2S16.2,42.5,16.2,75"/>
					</defs>
					<clipPath id="SVGID_32_">
						<use xlink:href="#SVGID_31_"  style="overflow:visible;"/>
					</clipPath>
					<path class="st15" d="M93.5,65.8h5.1v-1.5c0-1.6,1.1-3,2.6-3.4v-2.8C97.1,58.5,93.9,61.7,93.5,65.8 M99.4,67.5h-6.9
						c-0.5,0-0.9-0.4-0.9-0.9c0-5.7,4.6-10.3,10.3-10.3c0.5,0,0.9,0.4,0.9,0.9v4.4c0,0.5-0.4,0.8-0.8,0.9c-1,0-1.8,0.8-1.8,1.8v2.4
						C100.3,67.1,99.9,67.5,99.4,67.5"/>
				</g>
			</g>
			<g>
				<g>
					<defs>
						<path id="SVGID_33_" d="M16.2,75c0,32.5,26.3,58.8,58.8,58.8s58.8-26.3,58.8-58.8S107.4,16.2,75,16.2S16.2,42.5,16.2,75"/>
					</defs>
					<clipPath id="SVGID_34_">
						<use xlink:href="#SVGID_33_"  style="overflow:visible;"/>
					</clipPath>
					<path class="st16" d="M76.2,41.7c-5.3,0-9.5,4.3-9.5,9.5s4.3,9.5,9.5,9.5s9.5-4.3,9.5-9.5S81.5,41.7,76.2,41.7 M76.2,62.5
						C70,62.5,65,57.5,65,51.2C65,45,70,40,76.2,40S87.5,45,87.5,51.2C87.5,57.5,82.5,62.5,76.2,62.5"/>
				</g>
			</g>
			<g>
				<g>
					<defs>
						<path id="SVGID_35_" d="M16.2,75c0,32.5,26.3,58.8,58.8,58.8s58.8-26.3,58.8-58.8S107.4,16.2,75,16.2S16.2,42.5,16.2,75"/>
					</defs>
					<clipPath id="SVGID_36_">
						<use xlink:href="#SVGID_35_"  style="overflow:visible;"/>
					</clipPath>
					<path class="st17" d="M51.3,73.1v3.4c0,0.4,0.3,0.7,0.7,0.7h7c-0.2-1.4-0.6-2.8-1.5-4H52C51.8,73.2,51.5,73.2,51.3,73.1
						 M59.9,79H52c-1.3,0-2.4-1.1-2.4-2.4v-5.7c0-0.5,0.4-0.9,0.9-0.9s0.9,0.4,0.9,0.9c0,0.4,0.3,0.7,0.7,0.7h6
						c0.3,0,0.5,0.1,0.7,0.3c1.4,1.8,2.1,4,2.1,6.3C60.8,78.6,60.4,79,59.9,79z"/>
				</g>
			</g>
			<g>
				<g>
					<defs>
						<path id="SVGID_37_" d="M16.2,75c0,32.5,26.3,58.8,58.8,58.8s58.8-26.3,58.8-58.8S107.4,16.2,75,16.2S16.2,42.5,16.2,75"/>
					</defs>
					<clipPath id="SVGID_38_">
						<use xlink:href="#SVGID_37_"  style="overflow:visible;"/>
					</clipPath>
					<path class="st18" d="M93.5,71.5h5.1v-4H95C94.1,68.7,93.6,70.1,93.5,71.5 M99.4,73.2h-6.9c-0.5,0-0.9-0.4-0.9-0.9
						c0-2.3,0.7-4.4,2.1-6.3c0.2-0.2,0.4-0.3,0.7-0.3h4.9c0.5,0,0.9,0.4,0.9,0.9v5.7C100.3,72.8,99.9,73.2,99.4,73.2"/>
				</g>
			</g>
			<g>
				<g>
					<defs>
						<path id="SVGID_39_" d="M16.2,75c0,32.5,26.3,58.8,58.8,58.8s58.8-26.3,58.8-58.8S107.4,16.2,75,16.2S16.2,42.5,16.2,75"/>
					</defs>
					<clipPath id="SVGID_40_">
						<use xlink:href="#SVGID_39_"  style="overflow:visible;"/>
					</clipPath>
					<path class="st19" d="M51.3,67.4v3.4c0,0.4,0.3,0.7,0.7,0.7h7c-0.2-1.4-0.6-2.8-1.5-4H52C51.8,67.5,51.5,67.5,51.3,67.4
						 M59.9,73.2H52c-1.3,0-2.4-1.1-2.4-2.4v-5.7c0-0.5,0.4-0.9,0.9-0.9s0.9,0.4,0.9,0.9c0,0.4,0.3,0.7,0.7,0.7h6
						c0.3,0,0.5,0.1,0.7,0.3c1.4,1.8,2.1,4,2.1,6.3C60.8,72.8,60.4,73.2,59.9,73.2"/>
				</g>
			</g>
		</g>
		<g>
			<g>
				<g>
					<defs>
						<rect id="SVGID_41_" x="15.3" y="15.3" width="119.4" height="119.4"/>
					</defs>
					<clipPath id="SVGID_42_">
						<use xlink:href="#SVGID_41_"  style="overflow:visible;"/>
					</clipPath>
					<circle class="st20" cx="75" cy="75" r="58.8"/>
				</g>
			</g>
		</g>
	</g>
</g>
</svg>
