<?xml version="1.0" encoding="utf-8"?>
<!-- Generator: Adobe Illustrator 23.1.1, SVG Export Plug-In . SVG Version: 6.00 Build 0)  -->
<svg version="1.1" id="Capa_1" xmlns="http://www.w3.org/2000/svg" xmlns:xlink="http://www.w3.org/1999/xlink" x="0px" y="0px"
	 viewBox="0 0 475.1 475.1" style="enable-background:new 0 0 475.1 475.1;" xml:space="preserve">
<style type="text/css">
	.st0{fill:#BD64B1;}
</style>
<g>
	<g>
		<path class="st0" d="M270.3,345.5h88c12.2,0,22.6-4.3,31.2-12.8c8.6-8.6,12.8-18.9,12.8-31.2v-88c0-12.2-4.3-22.6-12.8-31.2
			c-8.6-8.6-18.9-12.8-31.2-12.8H307c-6.1,0-11.3-2.1-15.6-6.4c-4.3-4.3-6.4-9.5-6.4-15.6v-7.3c0-16.2,5.7-30,17.2-41.5
			c11.5-11.5,25.3-17.2,41.5-17.2h14.7c4,0,7.4-1.5,10.3-4.4c2.9-2.9,4.4-6.3,4.4-10.3V37.6c0-4-1.5-7.4-4.4-10.3
			c-2.9-2.9-6.3-4.4-10.3-4.4h-14.7c-15.9,0-31.1,3.1-45.5,9.3c-14.4,6.2-26.9,14.6-37.5,25.1c-10.5,10.5-18.9,23-25.1,37.5
			c-6.2,14.4-9.3,29.6-9.3,45.5v161.3c0,12.2,4.3,22.6,12.8,31.2S258.1,345.5,270.3,345.5z"/>
		<path class="st0" d="M33.8,332.7c8.6,8.6,18.9,12.8,31.2,12.8h88c12.2,0,22.6-4.3,31.2-12.8c8.6-8.6,12.8-18.9,12.8-31.2v-88
			c0-12.2-4.3-22.6-12.8-31.2c-8.6-8.6-18.9-12.8-31.2-12.8h-51.3c-6.1,0-11.3-2.1-15.6-6.4c-4.3-4.3-6.4-9.5-6.4-15.6v-7.3
			c0-16.2,5.7-30,17.2-41.5c11.5-11.5,25.3-17.2,41.5-17.2H153c4,0,7.4-1.5,10.3-4.4c2.9-2.9,4.4-6.3,4.4-10.3V37.6
			c0-4-1.5-7.4-4.4-10.3c-2.9-2.9-6.3-4.4-10.3-4.4h-14.7c-15.9,0-31,3.1-45.5,9.3c-14.4,6.2-26.9,14.6-37.5,25.1
			c-10.5,10.5-18.9,23-25.1,37.5c-6.2,14.4-9.3,29.6-9.3,45.5v161.3C21,313.8,25.3,324.2,33.8,332.7z"/>
	</g>
</g>
</svg>
