<?xml version="1.0" encoding="utf-8"?>
<!-- Generator: Adobe Illustrator 23.0.6, SVG Export Plug-In . SVG Version: 6.00 Build 0)  -->
<svg version="1.1" id="Layer_1" xmlns="http://www.w3.org/2000/svg" xmlns:xlink="http://www.w3.org/1999/xlink" x="0px" y="0px"
	 viewBox="0 0 150 150" style="enable-background:new 0 0 150 150;" xml:space="preserve">
<style type="text/css">
	.st0{clip-path:url(#SVGID_2_);fill:none;stroke:#594796;stroke-width:2;}
	.st1{clip-path:url(#SVGID_4_);}
	.st2{clip-path:url(#SVGID_6_);fill:#594796;stroke:#594796;}
	.st3{clip-path:url(#SVGID_8_);fill:#594796;stroke:#594796;}
	.st4{clip-path:url(#SVGID_10_);fill:#594796;stroke:#594796;}
	.st5{clip-path:url(#SVGID_12_);fill:#594796;stroke:#594796;}
	.st6{clip-path:url(#SVGID_14_);fill:#594796;stroke:#594796;}
	.st7{clip-path:url(#SVGID_16_);fill:#594796;stroke:#594796;}
	.st8{clip-path:url(#SVGID_18_);fill:#594796;stroke:#594796;}
	.st9{clip-path:url(#SVGID_20_);fill:#594796;stroke:#594796;}
	.st10{clip-path:url(#SVGID_22_);fill:#594796;stroke:#594796;}
	.st11{clip-path:url(#SVGID_24_);fill:#594796;stroke:#594796;}
	.st12{clip-path:url(#SVGID_26_);fill:#594796;stroke:#594796;}
	.st13{clip-path:url(#SVGID_28_);fill:#594796;stroke:#594796;}
	.st14{clip-path:url(#SVGID_30_);fill:#594796;stroke:#594796;}
	.st15{clip-path:url(#SVGID_32_);fill:#594796;stroke:#594796;}
	.st16{clip-path:url(#SVGID_34_);fill:#594796;stroke:#594796;}
	.st17{clip-path:url(#SVGID_36_);fill:#594796;stroke:#594796;}
	.st18{clip-path:url(#SVGID_38_);fill:#594796;stroke:#594796;}
	.st19{clip-path:url(#SVGID_40_);fill:#594796;stroke:#594796;}
	.st20{clip-path:url(#SVGID_42_);fill:#594796;stroke:#594796;}
	.st21{clip-path:url(#SVGID_44_);fill:#594796;stroke:#594796;}
	.st22{clip-path:url(#SVGID_46_);fill:none;stroke:#594796;stroke-width:2;}
</style>
<g>
	<g>
		<g>
			<g>
				<defs>
					<rect id="SVGID_1_" x="14.1" y="15" width="120" height="120"/>
				</defs>
				<clipPath id="SVGID_2_">
					<use xlink:href="#SVGID_1_"  style="overflow:visible;"/>
				</clipPath>
				<circle class="st0" cx="74.2" cy="75" r="59.1"/>
			</g>
		</g>
	</g>
	<g>
		<g>
			<g>
				<g>
					<defs>
						<path id="SVGID_3_" d="M15.4,75c0,32.5,26.3,58.8,58.8,58.8s58.8-26.3,58.8-58.8s-26.3-58.8-58.8-58.8S15.4,42.5,15.4,75"/>
					</defs>
					<clipPath id="SVGID_4_">
						<use xlink:href="#SVGID_3_"  style="overflow:visible;"/>
					</clipPath>
					<g class="st1">
						<g>
							<g>
								<defs>
									<rect id="SVGID_5_" x="42.6" y="37.6" width="61.8" height="77.2"/>
								</defs>
								<clipPath id="SVGID_6_">
									<use xlink:href="#SVGID_5_"  style="overflow:visible;"/>
								</clipPath>
								<path class="st2" d="M45.9,100.6v5.8c0,3.8,3.1,6.8,6.8,6.8h37.7c-2.1-1.5-3.5-4-3.5-6.8v-5.8l-2.2-1.5l-2.3,1.6
									c-0.4,0.3-1,0.3-1.5,0l-2.3-1.6l-2.3,1.6c-0.4,0.3-1,0.3-1.5,0l-2.3-1.6l-2.3,1.6c-0.4,0.3-1,0.3-1.5,0l-2.3-1.6l-2.3,1.6
									c-0.5,0.3-1,0.3-1.5,0l-2.3-1.6l-2.3,1.6c-0.5,0.3-1,0.3-1.5,0L54.2,99l-2.3,1.6c-0.5,0.3-1,0.3-1.5,0L48.1,99L45.9,100.6z
									 M95.4,114.9H52.8c-4.7,0-8.5-3.8-8.5-8.4v-6c0-0.4,0.2-0.9,0.6-1.1l2.5-1.7c0.5-0.3,1-0.3,1.5,0l2.3,1.6l2.3-1.6
									c0.5-0.3,1-0.3,1.5,0l2.3,1.6l2.3-1.6c0.5-0.3,1-0.3,1.5,0l2.3,1.6l2.3-1.6c0.4-0.3,1-0.3,1.5,0l2.3,1.6l2.3-1.6
									c0.4-0.3,1-0.3,1.5,0l2.3,1.6l2.3-1.6c0.4-0.3,1-0.3,1.5,0l2.3,1.6l2.3-1.6c0.4-0.3,1-0.3,1.5,0l2.5,1.7
									c0.4,0.2,0.6,0.7,0.6,1.1v6c0,3.8,3.1,6.8,6.8,6.8c0.4,0,0.8,0.4,0.8,0.8C96.2,114.5,95.8,114.9,95.4,114.9"/>
							</g>
						</g>
						<g>
							<g>
								<defs>
									<rect id="SVGID_7_" x="42.6" y="37.6" width="61.8" height="77.2"/>
								</defs>
								<clipPath id="SVGID_8_">
									<use xlink:href="#SVGID_7_"  style="overflow:visible;"/>
								</clipPath>
								<path class="st3" d="M84.7,97.4c0.3,0,0.5,0.1,0.8,0.2l2.5,1.7c0.4,0.2,0.6,0.7,0.6,1.1v6c0,3.7,3,6.8,6.8,6.8
									c1.8,0,3.6-0.7,4.9-2c1.3-1.3,2-3,2-4.9c0,0-0.8-64.4,0.2-67.2H68.2c0,0-0.1,0-0.1,0c-1.8,0-3.6,0.6-4.9,1.9
									c-1.3,1.3-2,3-2,4.8v51.7l2.2,1.5l2.3-1.6c0.4-0.3,1-0.3,1.5,0l2.3,1.6l2.3-1.6c0.4-0.3,1-0.3,1.5,0l2.3,1.6l2.3-1.6
									c0.4-0.3,1-0.3,1.5,0l2.3,1.6l2.3-1.6C84.2,97.5,84.4,97.4,84.7,97.4 M95.4,114.9C95.4,114.9,95.3,114.9,95.4,114.9
									c-4.7-0.1-8.5-3.8-8.5-8.4v-5.8l-2.2-1.5l-2.3,1.6c-0.4,0.3-1,0.3-1.5,0l-2.3-1.6l-2.3,1.6c-0.4,0.3-1,0.3-1.5,0l-2.3-1.6
									l-2.3,1.6c-0.4,0.3-1,0.3-1.5,0l-2.3-1.6l-2.3,1.6c-0.5,0.3-1,0.3-1.5,0L60.2,99c-0.4-0.1-0.6-0.4-0.6-0.8V46
									c0-2.3,0.9-4.4,2.5-6c1.6-1.6,3.7-2.4,5.9-2.4c0,0,0.1,0,0.1,0h35.5c0.3,0,0.5,0.1,0.7,0.4s0.2,0.5,0,0.8
									c-1.2,2.6-0.5,67.6-0.5,67.6c0,2.3-0.9,4.4-2.5,6C99.7,114,97.6,114.9,95.4,114.9"/>
							</g>
						</g>
						<g>
							<g>
								<defs>
									<rect id="SVGID_9_" x="42.6" y="37.6" width="61.8" height="77.2"/>
								</defs>
								<clipPath id="SVGID_10_">
									<use xlink:href="#SVGID_9_"  style="overflow:visible;"/>
								</clipPath>
								<path class="st4" d="M95.7,75.3H73.3c-0.4,0-0.8-0.4-0.8-0.8s0.4-0.8,0.8-0.8h22.4c0.4,0,0.8,0.4,0.8,0.8
									S96.1,75.3,95.7,75.3"/>
							</g>
						</g>
						<g>
							<g>
								<defs>
									<rect id="SVGID_11_" x="42.6" y="37.6" width="61.8" height="77.2"/>
								</defs>
								<clipPath id="SVGID_12_">
									<use xlink:href="#SVGID_11_"  style="overflow:visible;"/>
								</clipPath>
								<path class="st5" d="M95.7,80.9H73.3c-0.4,0-0.8-0.4-0.8-0.8s0.4-0.8,0.8-0.8h22.4c0.4,0,0.8,0.4,0.8,0.8
									C96.5,80.6,96.1,80.9,95.7,80.9"/>
							</g>
						</g>
						<g>
							<g>
								<defs>
									<rect id="SVGID_13_" x="42.6" y="37.6" width="61.8" height="77.2"/>
								</defs>
								<clipPath id="SVGID_14_">
									<use xlink:href="#SVGID_13_"  style="overflow:visible;"/>
								</clipPath>
								<path class="st6" d="M95.7,58.6H73.3c-0.4,0-0.8-0.4-0.8-0.8s0.4-0.8,0.8-0.8h22.4c0.4,0,0.8,0.4,0.8,0.8
									C96.5,58.2,96.1,58.6,95.7,58.6"/>
							</g>
						</g>
						<g>
							<g>
								<defs>
									<rect id="SVGID_15_" x="42.6" y="37.6" width="61.8" height="77.2"/>
								</defs>
								<clipPath id="SVGID_16_">
									<use xlink:href="#SVGID_15_"  style="overflow:visible;"/>
								</clipPath>
								<path class="st7" d="M95.7,64.2H73.3c-0.4,0-0.8-0.4-0.8-0.8s0.4-0.8,0.8-0.8h22.4c0.4,0,0.8,0.4,0.8,0.8
									C96.5,63.8,96.1,64.2,95.7,64.2"/>
							</g>
						</g>
						<g>
							<g>
								<defs>
									<rect id="SVGID_17_" x="42.6" y="37.6" width="61.8" height="77.2"/>
								</defs>
								<clipPath id="SVGID_18_">
									<use xlink:href="#SVGID_17_"  style="overflow:visible;"/>
								</clipPath>
								<path class="st8" d="M95.7,69.8H73.3c-0.4,0-0.8-0.4-0.8-0.8s0.4-0.8,0.8-0.8h22.4c0.4,0,0.8,0.4,0.8,0.8
									S96.1,69.8,95.7,69.8"/>
							</g>
						</g>
						<g>
							<g>
								<defs>
									<rect id="SVGID_19_" x="42.6" y="37.6" width="61.8" height="77.2"/>
								</defs>
								<clipPath id="SVGID_20_">
									<use xlink:href="#SVGID_19_"  style="overflow:visible;"/>
								</clipPath>
								<path class="st9" d="M95.7,86.5H73.3c-0.4,0-0.8-0.4-0.8-0.8s0.4-0.8,0.8-0.8h22.4c0.4,0,0.8,0.4,0.8,0.8
									C96.5,86.2,96.1,86.5,95.7,86.5"/>
							</g>
						</g>
						<g>
							<g>
								<defs>
									<rect id="SVGID_21_" x="42.6" y="37.6" width="61.8" height="77.2"/>
								</defs>
								<clipPath id="SVGID_22_">
									<use xlink:href="#SVGID_21_"  style="overflow:visible;"/>
								</clipPath>
								<path class="st10" d="M95.7,92.1H73.3c-0.4,0-0.8-0.4-0.8-0.8s0.4-0.8,0.8-0.8h22.4c0.4,0,0.8,0.4,0.8,0.8
									S96.1,92.1,95.7,92.1"/>
							</g>
						</g>
						<g>
							<g>
								<defs>
									<rect id="SVGID_23_" x="42.6" y="37.6" width="61.8" height="77.2"/>
								</defs>
								<clipPath id="SVGID_24_">
									<use xlink:href="#SVGID_23_"  style="overflow:visible;"/>
								</clipPath>
								<path class="st11" d="M69,75.3h-2c-0.4,0-0.8-0.4-0.8-0.8s0.4-0.8,0.8-0.8h2c0.4,0,0.8,0.4,0.8,0.8S69.5,75.3,69,75.3"/>
							</g>
						</g>
						<g>
							<g>
								<defs>
									<rect id="SVGID_25_" x="42.6" y="37.6" width="61.8" height="77.2"/>
								</defs>
								<clipPath id="SVGID_26_">
									<use xlink:href="#SVGID_25_"  style="overflow:visible;"/>
								</clipPath>
								<path class="st12" d="M69,80.9h-2c-0.4,0-0.8-0.4-0.8-0.8s0.4-0.8,0.8-0.8h2c0.4,0,0.8,0.4,0.8,0.8S69.5,80.9,69,80.9"/>
							</g>
						</g>
						<g>
							<g>
								<defs>
									<rect id="SVGID_27_" x="42.6" y="37.6" width="61.8" height="77.2"/>
								</defs>
								<clipPath id="SVGID_28_">
									<use xlink:href="#SVGID_27_"  style="overflow:visible;"/>
								</clipPath>
								<path class="st13" d="M69,58.6h-2c-0.4,0-0.8-0.4-0.8-0.8S66.6,57,67,57h2c0.4,0,0.8,0.4,0.8,0.8S69.5,58.6,69,58.6"/>
							</g>
						</g>
						<g>
							<g>
								<defs>
									<rect id="SVGID_29_" x="42.6" y="37.6" width="61.8" height="77.2"/>
								</defs>
								<clipPath id="SVGID_30_">
									<use xlink:href="#SVGID_29_"  style="overflow:visible;"/>
								</clipPath>
								<path class="st14" d="M69,64.2h-2c-0.4,0-0.8-0.4-0.8-0.8s0.4-0.8,0.8-0.8h2c0.4,0,0.8,0.4,0.8,0.8
									C69.8,63.8,69.5,64.2,69,64.2"/>
							</g>
						</g>
						<g>
							<g>
								<defs>
									<rect id="SVGID_31_" x="42.6" y="37.6" width="61.8" height="77.2"/>
								</defs>
								<clipPath id="SVGID_32_">
									<use xlink:href="#SVGID_31_"  style="overflow:visible;"/>
								</clipPath>
								<path class="st15" d="M69,69.8h-2c-0.4,0-0.8-0.4-0.8-0.8s0.4-0.8,0.8-0.8h2c0.4,0,0.8,0.4,0.8,0.8S69.5,69.8,69,69.8"/>
							</g>
						</g>
						<g>
							<g>
								<defs>
									<rect id="SVGID_33_" x="42.6" y="37.6" width="61.8" height="77.2"/>
								</defs>
								<clipPath id="SVGID_34_">
									<use xlink:href="#SVGID_33_"  style="overflow:visible;"/>
								</clipPath>
								<path class="st16" d="M69,86.5h-2c-0.4,0-0.8-0.4-0.8-0.8s0.4-0.8,0.8-0.8h2c0.4,0,0.8,0.4,0.8,0.8S69.5,86.5,69,86.5"/>
							</g>
						</g>
						<g>
							<g>
								<defs>
									<rect id="SVGID_35_" x="42.6" y="37.6" width="61.8" height="77.2"/>
								</defs>
								<clipPath id="SVGID_36_">
									<use xlink:href="#SVGID_35_"  style="overflow:visible;"/>
								</clipPath>
								<path class="st17" d="M69,92.1h-2c-0.4,0-0.8-0.4-0.8-0.8s0.4-0.8,0.8-0.8h2c0.4,0,0.8,0.4,0.8,0.8S69.5,92.1,69,92.1"/>
							</g>
						</g>
						<g>
							<g>
								<defs>
									<rect id="SVGID_37_" x="42.6" y="37.6" width="61.8" height="77.2"/>
								</defs>
								<clipPath id="SVGID_38_">
									<use xlink:href="#SVGID_37_"  style="overflow:visible;"/>
								</clipPath>
								<path class="st18" d="M49.7,66.8h-4.2c-1.6,0-2.9,1.3-2.9,2.9v4.2c0,0.3,0.2,0.5,0.5,0.5s0.5-0.2,0.5-0.5v-4.2
									c0-1,0.8-1.8,1.8-1.8h4.2c0.3,0,0.5-0.2,0.5-0.5C50.2,67,50,66.8,49.7,66.8"/>
							</g>
						</g>
						<g>
							<g>
								<defs>
									<rect id="SVGID_39_" x="42.6" y="37.6" width="61.8" height="77.2"/>
								</defs>
								<clipPath id="SVGID_40_">
									<use xlink:href="#SVGID_39_"  style="overflow:visible;"/>
								</clipPath>
								<path class="st19" d="M64.9,69.6c0-1.6-1.3-2.9-2.9-2.9h-4.2c-0.3,0-0.5,0.2-0.5,0.5c0,0.3,0.2,0.5,0.5,0.5H62
									c1,0,1.8,0.8,1.8,1.8v4.2c0,0.3,0.2,0.5,0.5,0.5s0.5-0.2,0.5-0.5L64.9,69.6L64.9,69.6z"/>
							</g>
						</g>
						<g>
							<g>
								<defs>
									<rect id="SVGID_41_" x="42.6" y="37.6" width="61.8" height="77.2"/>
								</defs>
								<clipPath id="SVGID_42_">
									<use xlink:href="#SVGID_41_"  style="overflow:visible;"/>
								</clipPath>
								<path class="st20" d="M57.3,89.1c0,0.3,0.2,0.5,0.5,0.5H62c1.6,0,2.9-1.3,2.9-2.9v-4.2c0-0.3-0.2-0.5-0.5-0.5
									s-0.5,0.2-0.5,0.5v4.2c0,1-0.8,1.8-1.8,1.8h-4.2C57.5,88.5,57.3,88.8,57.3,89.1"/>
							</g>
						</g>
						<g>
							<g>
								<defs>
									<rect id="SVGID_43_" x="42.6" y="37.6" width="61.8" height="77.2"/>
								</defs>
								<clipPath id="SVGID_44_">
									<use xlink:href="#SVGID_43_"  style="overflow:visible;"/>
								</clipPath>
								<path class="st21" d="M42.6,86.7c0,1.6,1.3,2.9,2.9,2.9h4.2c0.3,0,0.5-0.2,0.5-0.5s-0.2-0.5-0.5-0.5h-4.2
									c-1,0-1.8-0.8-1.8-1.8v-4.2c0-0.3-0.2-0.5-0.5-0.5c-0.3,0-0.5,0.2-0.5,0.5C42.6,82.5,42.6,86.7,42.6,86.7z"/>
							</g>
						</g>
					</g>
				</g>
			</g>
		</g>
		<g>
			<g>
				<g>
					<defs>
						<rect id="SVGID_45_" x="14.5" y="15.3" width="119.4" height="119.4"/>
					</defs>
					<clipPath id="SVGID_46_">
						<use xlink:href="#SVGID_45_"  style="overflow:visible;"/>
					</clipPath>
					<circle class="st22" cx="74.2" cy="75" r="58.8"/>
				</g>
			</g>
		</g>
	</g>
</g>
</svg>
